<?xml version="1.0" encoding="utf-8"?>
<!-- Generator: Adobe Illustrator 24.2.1, SVG Export Plug-In . SVG Version: 6.00 Build 0)  -->
<svg version="1.1" id="Layer_1" xmlns="http://www.w3.org/2000/svg" xmlns:xlink="http://www.w3.org/1999/xlink" x="0px" y="0px"
	 viewBox="0 0 900 600" style="enable-background:new 0 0 900 600;" xml:space="preserve">
<style type="text/css">
	.st0{fill:#FFFFFF;}
	.st1{fill:#BEBEBE;}
	.st2{fill:#171717;}
	.st3{fill:url(#SVGID_1_);}
	.st4{fill:url(#SVGID_2_);}
	.st5{fill:#545454;}
	.st6{fill:url(#SVGID_3_);}
	.st7{fill:#363636;}
	.st8{fill:url(#SVGID_4_);}
	.st9{fill:#D2D2D2;}
	.st10{fill:url(#SVGID_5_);}
	.st11{fill:url(#SVGID_6_);}
	.st12{fill:url(#SVGID_7_);}
	.st13{fill:url(#SVGID_8_);}
	.st14{fill:url(#SVGID_9_);}
	.st15{fill:#C4C4C4;}
	.st16{fill:#B5B5B5;}
	.st17{fill:url(#SVGID_10_);}
	.st18{fill:url(#SVGID_11_);}
	.st19{fill:url(#SVGID_12_);}
	.st20{fill:url(#SVGID_13_);}
	.st21{fill:url(#SVGID_14_);}
	.st22{fill:url(#SVGID_15_);}
	.st23{fill:url(#SVGID_16_);}
	.st24{fill:#E3E3E3;}
	.st25{fill:url(#SVGID_17_);}
	.st26{fill:#ACACAC;}
	.st27{fill:url(#SVGID_18_);}
	.st28{fill:url(#SVGID_19_);}
	.st29{fill:url(#SVGID_20_);}
	.st30{fill:#A2A2A2;}
	.st31{fill:url(#SVGID_21_);}
	.st32{fill:url(#SVGID_22_);}
	.st33{fill:url(#SVGID_23_);}
	.st34{fill:url(#SVGID_24_);}
	.st35{fill:url(#SVGID_25_);}
	.st36{fill:url(#SVGID_26_);}
	.st37{fill:url(#SVGID_27_);}
	.st38{fill:url(#SVGID_28_);}
	.st39{fill:url(#SVGID_29_);}
	.st40{fill:#929292;}
	.st41{fill:#262626;}
	.st42{fill:#AE1F24;}
	.st43{fill:url(#SVGID_30_);}
	.st44{fill:url(#SVGID_31_);}
	.st45{fill:url(#SVGID_32_);}
	.st46{fill:url(#SVGID_33_);}
	.st47{fill:url(#SVGID_34_);}
	.st48{fill:url(#SVGID_35_);}
</style>
<g>
	<g>
		<path class="st0" d="M409,253.6c-0.8,0-1.4-0.7-1.4-1.4V227c0-0.8,0.7-1.4,1.4-1.4c0.8,0,1.4,0.7,1.4,1.4v25.2
			C410.4,253,409.8,253.6,409,253.6z"/>
	</g>
	<g>
		<path class="st0" d="M421.6,241h-25.2c-0.8,0-1.4-0.7-1.4-1.4c0-0.8,0.7-1.4,1.4-1.4h25.2c0.8,0,1.4,0.7,1.4,1.4
			C423.1,240.4,422.4,241,421.6,241z"/>
	</g>
</g>
<g>
	<g>
		<path class="st0" d="M300.7,290.8c-0.4,0-0.7-0.3-0.7-0.7v-12.6c0-0.4,0.3-0.7,0.7-0.7s0.7,0.3,0.7,0.7v12.6
			C301.4,290.6,301,290.8,300.7,290.8z"/>
	</g>
	<g>
		<path class="st0" d="M307,284.5h-12.6c-0.4,0-0.7-0.3-0.7-0.7c0-0.4,0.3-0.7,0.7-0.7h12.6c0.4,0,0.7,0.3,0.7,0.7
			C307.7,284.2,307.4,284.5,307,284.5z"/>
	</g>
</g>
<g>
	<path class="st0" d="M343,304.8c-1-0.7-1.7-1.7-2.3-2.9c-0.6-1.2-0.8-2.6-0.8-4.1c0-1.6,0.2-2.9,0.8-4.2c0.6-1.2,1.3-2.2,2.3-2.9
		c1-0.7,2.1-1.1,3.4-1.1c2,0,3.5,0.8,4.7,2.4c1.1,1.6,1.8,3.5,1.8,5.8c0,1.5-0.2,2.9-0.8,4.1c-0.6,1.2-1.3,2.2-2.3,2.9
		c-1,0.7-2.1,1.1-3.3,1.1C345.2,305.8,344,305.5,343,304.8z M348.7,301.3c0.5-0.9,0.8-2.1,0.8-3.5c0-1.5-0.2-2.7-0.8-3.6
		c-0.5-0.9-1.3-1.4-2.3-1.4s-1.7,0.5-2.3,1.4c-0.5,0.9-0.8,2.1-0.8,3.6c0,1.5,0.2,2.7,0.8,3.6c0.5,0.9,1.3,1.4,2.3,1.4
		S348.2,302.3,348.7,301.3z M345.4,319.6c-0.4-0.3-0.6-0.7-0.6-1.2c0-0.3,0.1-0.7,0.3-1.1l17.5-26.5c0.4-0.6,0.9-0.8,1.4-0.8
		c0.4,0,0.8,0.2,1.2,0.5s0.6,0.7,0.6,1.2c0,0.3-0.1,0.7-0.3,1.1L348,319.2c-0.4,0.6-0.9,0.8-1.4,0.8
		C346.1,320,345.7,319.9,345.4,319.6z M361.1,319.2c-1-0.7-1.8-1.7-2.4-2.9c-0.6-1.2-0.8-2.6-0.8-4.1c0-1.6,0.2-2.9,0.8-4.2
		c0.6-1.2,1.3-2.2,2.3-2.9s2.1-1.1,3.4-1.1c1.3,0,2.4,0.3,3.4,1.1c1,0.7,1.7,1.7,2.3,2.9c0.5,1.2,0.8,2.6,0.8,4.1
		c0,1.5-0.2,2.9-0.8,4.1c-0.6,1.2-1.3,2.2-2.3,2.9c-1,0.7-2.1,1.1-3.3,1.1C363.2,320.3,362.2,320,361.1,319.2z M366.7,315.8
		c0.5-0.9,0.7-2.1,0.7-3.6s-0.2-2.7-0.8-3.6c-0.5-0.9-1.2-1.4-2.2-1.4s-1.7,0.5-2.3,1.4c-0.5,0.9-0.8,2.1-0.8,3.6s0.2,2.7,0.8,3.6
		c0.5,0.9,1.3,1.4,2.3,1.4C365.5,317.2,366.3,316.7,366.7,315.8z"/>
</g>
<g>
	<path class="st0" d="M251.7,364.9c-0.7-0.5-1.1-1.1-1.5-1.9s-0.5-1.6-0.5-2.6s0.2-1.8,0.5-2.6c0.3-0.8,0.8-1.4,1.5-1.9
		c0.7-0.5,1.4-0.7,2.2-0.7c1.2,0,2.3,0.5,3,1.5c0.7,1,1.1,2.2,1.1,3.7c0,1-0.2,1.8-0.5,2.6s-0.8,1.4-1.5,1.9s-1.3,0.7-2.1,0.7
		C253.1,365.7,252.3,365.4,251.7,364.9z M255.3,362.7c0.3-0.6,0.5-1.3,0.5-2.3c0-1-0.2-1.7-0.5-2.3c-0.3-0.6-0.8-0.9-1.4-0.9
		s-1.1,0.3-1.4,0.9s-0.5,1.3-0.5,2.3c0,1,0.2,1.7,0.5,2.3c0.3,0.6,0.8,0.9,1.4,0.9S254.9,363.4,255.3,362.7z M253.1,374.3
		c-0.2-0.2-0.3-0.5-0.3-0.7c0-0.2,0.1-0.4,0.2-0.7l11.2-16.8c0.2-0.3,0.6-0.5,0.9-0.5c0.2,0,0.5,0.1,0.7,0.3
		c0.2,0.2,0.3,0.5,0.3,0.7c0,0.2-0.1,0.4-0.2,0.7l-11.1,16.8c-0.2,0.3-0.6,0.5-0.9,0.5C253.6,374.6,253.4,374.6,253.1,374.3z
		 M263.2,374.2c-0.7-0.5-1.1-1.1-1.5-1.9s-0.5-1.6-0.5-2.6c0-1,0.2-1.8,0.5-2.6s0.8-1.4,1.5-1.9c0.7-0.5,1.4-0.7,2.2-0.7
		s1.6,0.2,2.2,0.7c0.7,0.5,1.1,1.1,1.5,1.9s0.5,1.6,0.5,2.6c0,1-0.2,1.8-0.5,2.6s-0.8,1.4-1.5,1.9s-1.3,0.7-2.1,0.7
		C264.5,374.8,263.8,374.6,263.2,374.2z M266.7,371.9c0.3-0.6,0.5-1.3,0.5-2.3s-0.2-1.7-0.5-2.3c-0.3-0.6-0.8-0.9-1.4-0.9
		c-0.7,0-1.1,0.3-1.4,0.9s-0.5,1.3-0.5,2.3c0,1,0.2,1.7,0.5,2.3c0.3,0.6,0.8,0.9,1.4,0.9C265.9,372.8,266.4,372.5,266.7,371.9z"/>
</g>
<path class="st1" d="M386.9,451.8H187c-1.1,0-1.9,0.8-1.9,1.9c0,1.1,0.9,1.9,1.9,1.9h199.9c1.1,0,1.9-0.8,1.9-1.9
	C388.8,452.7,388,451.8,386.9,451.8z"/>
<ellipse class="st2" cx="329.4" cy="462" rx="57.5" ry="6.1"/>
<g>
	
		<linearGradient id="SVGID_1_" gradientUnits="userSpaceOnUse" x1="367.6428" y1="144.9306" x2="281.7237" y2="144.9306" gradientTransform="matrix(1 0 0 -1 0 600)">
		<stop  offset="0" style="stop-color:#FFFFFF"/>
		<stop  offset="0.4355" style="stop-color:#E7E7E7"/>
		<stop  offset="0.9396" style="stop-color:#B8B8B8"/>
	</linearGradient>
	<path class="st3" d="M326.6,446.3c-20.4,0-41-3.6-41-3.6s-11.9,24.7-45.4,24.7h78.9c25.5,0,40.9-1.6,51.8-23.9
		C370.9,443.5,355.2,446.3,326.6,446.3z"/>
	<g>
		<g>
			<path class="st1" d="M327.6,455.3c-18.1,0-32.7-1.3-32.9-1.3c-0.5-0.1-0.8-0.4-0.7-0.9c0.1-0.5,0.5-0.7,0.9-0.7
				c0.2,0,27.7,2.5,54.1,0.7c0.5-0.1,0.8,0.3,0.9,0.7c0,0.5-0.3,0.8-0.7,0.9C341.8,455,334.4,455.3,327.6,455.3z"/>
		</g>
	</g>
	<g>
		<g>
			<path class="st1" d="M316.6,463.8c-18.1-0.3-32.6-1.9-32.9-2c-0.5-0.1-0.8-0.5-0.7-0.9c0.1-0.5,0.5-0.7,0.9-0.7
				c0.2,0,27.7,3,54.1,1.6c0.5-0.1,0.8,0.3,0.9,0.8c0,0.5-0.3,0.8-0.8,0.9C330.8,463.8,323.4,463.9,316.6,463.8z"/>
		</g>
	</g>
</g>
<g>
	<g>
		
			<linearGradient id="SVGID_2_" gradientUnits="userSpaceOnUse" x1="743.9291" y1="377.8436" x2="726.0506" y2="289.7276" gradientTransform="matrix(1 0 0 -1 0 600)">
			<stop  offset="0" style="stop-color:#CCCCCC"/>
			<stop  offset="0.1402" style="stop-color:#BEBEBE"/>
			<stop  offset="0.4038" style="stop-color:#9A9A9A"/>
			<stop  offset="0.7599" style="stop-color:#606060"/>
			<stop  offset="0.8242" style="stop-color:#545454"/>
			<stop  offset="0.9068" style="stop-color:#4B4B4B"/>
			<stop  offset="1" style="stop-color:#3B3B3B"/>
		</linearGradient>
		<path class="st4" d="M669,176c24.4,10,39.7,34.9,60.3,49.8c20.6,14.9,65.2,39.7,74.7,61.8c10.5,24.4,3.5,57.4-17.1,58.4
			c-20.6,1-66.8-9.5-82.5-29.2c-15.8-19.7-24.2-16.6-24.2-16.6L669,176z"/>
		<g>
			<g>
				<g>
					<path class="st5" d="M763,286.6c-0.1,0-0.2,0-0.2,0c-18.9-3.9-28.8-6.9-28.9-7c-0.5-0.2-0.8-0.7-0.7-1.2
						c0.2-0.5,0.7-0.8,1.2-0.7c0.1,0,10,3,28.7,6.9c0.5,0.1,0.8,0.7,0.7,1.1C763.8,286.3,763.4,286.6,763,286.6z"/>
				</g>
			</g>
			<g>
				
					<linearGradient id="SVGID_3_" gradientUnits="userSpaceOnUse" x1="733.884" y1="319.8029" x2="716.3581" y2="272.1988" gradientTransform="matrix(1 0 0 -1 0 600)">
					<stop  offset="0" style="stop-color:#FFFFFF"/>
					<stop  offset="0.7459" style="stop-color:#E7E7E7"/>
					<stop  offset="0.9396" style="stop-color:#B8B8B8"/>
				</linearGradient>
				<path class="st6" d="M739,279.1l-17.7-5.6c0,0,0.8,34.9-17.4,49.4l19.1,7.8C722.9,330.7,748.8,311.2,739,279.1z"/>
				<path class="st7" d="M721.8,301.4c-4.8,13.6-12.9,23.3-18,21.5c-5.1-1.8-5.4-14.4-0.6-28c4.8-13.6,12.9-23.3,18-21.5
					C726.3,275.2,726.6,287.8,721.8,301.4z"/>
			</g>
		</g>
	</g>
	<g>
		<g>
			
				<linearGradient id="SVGID_4_" gradientUnits="userSpaceOnUse" x1="263.3544" y1="175.5659" x2="326.02" y2="175.5659" gradientTransform="matrix(1 0 0 -1 0 600)">
				<stop  offset="0" style="stop-color:#D7D7D7"/>
				<stop  offset="1" style="stop-color:#BBBBBB"/>
			</linearGradient>
			<path class="st8" d="M284.3,401.5c0,0-26,25.3-20.1,39.7c6,14.4,33.7,7.2,37.6,5.3c7.9-3.8,24.2-18.4,24.2-18.4
				S309.9,388.8,284.3,401.5z"/>
			<path class="st5" d="M311,349.7c-2-0.7-4.2,0.2-4.9,2.2l-37.3,96.9v9.2l7.1-6.4l37.2-97C313.9,352.6,313,350.4,311,349.7z"/>
			<path class="st9" d="M308.2,396.6c0,0-11.1-2.4-17.1,0c-6,2.4-23.7,20.7-22.4,26.9c1,4.2,6.6,12.3,30.6-11.8
				c0,0,9.7,30.8,29.8,15L308.2,396.6z"/>
			
				<linearGradient id="SVGID_5_" gradientUnits="userSpaceOnUse" x1="308.7823" y1="208.7517" x2="349.1549" y2="179.6912" gradientTransform="matrix(1 0 0 -1 0 600)">
				<stop  offset="0" style="stop-color:#FFFFFF"/>
				<stop  offset="0.7459" style="stop-color:#E7E7E7"/>
				<stop  offset="0.9396" style="stop-color:#B8B8B8"/>
			</linearGradient>
			<path class="st10" d="M328.5,379.6l-21.8,14c0,0,6.7,28.1,24.6,39.6l15.3-9.9L328.5,379.6z"/>
		</g>
		
			<linearGradient id="SVGID_6_" gradientUnits="userSpaceOnUse" x1="401.2086" y1="317.3388" x2="465.2854" y2="237.9391" gradientTransform="matrix(1 0 0 -1 0 600)">
			<stop  offset="0" style="stop-color:#CCCCCC"/>
			<stop  offset="0.8242" style="stop-color:#545454"/>
			<stop  offset="0.9068" style="stop-color:#4B4B4B"/>
			<stop  offset="1" style="stop-color:#3B3B3B"/>
		</linearGradient>
		<path class="st11" d="M466.5,209.1c-3.3,7.7-36.9,80.6-50.8,99s-91,74.4-91,74.4s1.5,12.9,10.5,29.2c9.1,16.3,20.6,26.9,20.6,26.9
			s66.1-37.4,88.1-60.3c22-23,41.2-60.5,41.2-60.5l8.2-134.4C481.8,188.9,469.8,201.4,466.5,209.1z"/>
	</g>
	<g>
		
			<linearGradient id="SVGID_7_" gradientUnits="userSpaceOnUse" x1="577.0961" y1="427.3645" x2="577.0961" y2="146.0645" gradientTransform="matrix(1 0 0 -1 0 600)">
			<stop  offset="0.1016" style="stop-color:#CCCCCC"/>
			<stop  offset="0.8242" style="stop-color:#545454"/>
			<stop  offset="0.9068" style="stop-color:#4B4B4B"/>
			<stop  offset="1" style="stop-color:#3B3B3B"/>
		</linearGradient>
		<path class="st12" d="M679.1,260.7c0-74.3-10-84.8-10-84.8s-54.1-13.7-94.3-13.7c-47,0-81.4,20.9-81.4,20.9s-16,40.2-21.1,127.6
			c-1.2,20.6-8.7,143-8.7,143h227C690.6,453.7,679.1,282.3,679.1,260.7z"/>
		
			<linearGradient id="SVGID_8_" gradientUnits="userSpaceOnUse" x1="566.4919" y1="388.8303" x2="551.1738" y2="150.4429" gradientTransform="matrix(1 0 0 -1 0 600)">
			<stop  offset="0" style="stop-color:#FFFFFF"/>
			<stop  offset="0.7459" style="stop-color:#E7E7E7"/>
			<stop  offset="0.9396" style="stop-color:#B8B8B8"/>
		</linearGradient>
		<path class="st13" d="M572.2,164.5c-18.2,0-29.5,4.7-33.3,13.4c-1.7,3.9-12.2,41.4-19.9,112.2c-8,74-2.1,163.6-2.1,163.6h77
			c0,0,13.1-271.5,13.1-279.7C606.9,166,589,164.5,572.2,164.5z"/>
	</g>
	<path class="st1" d="M897.6,451.8H384c-1.1,0-1.9,0.8-1.9,1.9c0,1.1,0.9,1.9,1.9,1.9h513.6c1.1,0,1.9-0.8,1.9-1.9
		C899.5,452.7,898.7,451.8,897.6,451.8z"/>
	<g>
		<g>
			<path class="st0" d="M501.2,109.8c-2,0-3.8-0.9-5.5-2.4c-2-1.9-3.3-4.7-4-7.8c-0.7-3.1-0.3-6.1,0.7-8.7c1.1-2.6,3-4.3,5.4-4.8
				c2.4-0.5,4.7,0.4,6.8,2.4c2,1.9,3.3,4.7,4,7.8c1.3,6.5-1.5,12.5-6.1,13.5C502.1,109.7,501.6,109.8,501.2,109.8z M499,87.9
				c-0.3,0-0.6,0-0.9,0.1c-1.7,0.3-3.1,1.6-4,3.7c-0.9,2.1-1.1,4.8-0.6,7.5c0.6,2.7,1.8,5.1,3.4,6.7c1.6,1.6,3.4,2.2,5.1,1.9
				c3.6-0.7,5.7-5.7,4.6-11.2c-0.6-2.7-1.8-5.1-3.4-6.7C502,88.6,500.5,87.9,499,87.9z"/>
		</g>
		
			<linearGradient id="SVGID_9_" gradientUnits="userSpaceOnUse" x1="520.0882" y1="506.8917" x2="608.1851" y2="442.5335" gradientTransform="matrix(1 0 0 -1 0 600)">
			<stop  offset="0" style="stop-color:#D7D7D7"/>
			<stop  offset="1" style="stop-color:#BBBBBB"/>
		</linearGradient>
		<path class="st14" d="M578.5,105.6c-2.6-10.3,5.5-21.3-1.5-48.2c-6.9-26.8-31.3-22.2-44.3-20.2c-34.9,5.3-33.3,29.4-33.3,39.7
			s4.8,16.1,4.6,22.5c-0.2,6.4-4.6,16.5-3.3,18.9c1.2,2.4,9.1,3.3,9.1,3.3s3,1.1,4.8,8.9c0.7,3.3,2.1,15.3,7.7,15.8
			c5.5,0.5,17.8-2.4,17.8-2.4l1.8,38.4c0,0-4.6,19.8,16.7,19.8c21.3,0,40.9-32.6,40.9-32.6S581.1,115.9,578.5,105.6z"/>
		<path class="st15" d="M524.1,70.9c13.6-12.3,22.7,1.4,22.7,1.4s1.6-15.2-17.6-14.9c-14.5,0.2-18.6,12.4-29.6,14
			c-0.1,2,0,3.9,0,5.5c0,1.9,0.2,3.5,0.4,5.1C507.4,83.2,514.5,79.5,524.1,70.9z"/>
		<path class="st16" d="M567.9,100.2c0,0-0.4,16.7-2.2,21.2s-13.5,20.4-25.7,22.5l0.6,12.1C553.5,152.7,579.1,141.9,567.9,100.2z"/>
		
			<linearGradient id="SVGID_10_" gradientUnits="userSpaceOnUse" x1="536.4785" y1="582.4272" x2="536.4785" y2="511.01" gradientTransform="matrix(1 0 0 -1 0 600)">
			<stop  offset="0" style="stop-color:#494949"/>
			<stop  offset="1" style="stop-color:#262626"/>
		</linearGradient>
		<path class="st17" d="M574.9,31.7c-0.1-0.1-0.1-0.1-0.2-0.2c-5.6-4.3-13.8-4.3-20.6-5.4c-1-0.2-2.1-0.4-2.7-1.3
			c-0.7-1.1,0-2.6,0-3.9c0-2-1.6-3.8-3.4-4.5c-1.9-0.7-3.9-0.7-5.9-0.6c-15.8,0.9-31.4,6-44.8,14.4c-4.2,2.7-8.6,5.6-10.9,10.2
			c-2.3,4.3-3.3,9.4-2.9,14.3c0.8,10.4,9.2,22,20.6,22c0.2,0,0.3,0,0.5,0c5.7-0.2,10.5-3.8,14.9-7.1c2-1.6,3.3-3.4,5.7-4.4
			c2.9-1.3,6.1-2.4,9.4-2.3c4.3,0.1,8.9,2.4,10.3,6.5c1,2.9,0.3,6-0.7,8.7c-1,2.8-2.4,5.5-3,8.4c-0.7,2.9-0.3,6.3,1.7,8.5
			c4.1,4.4,9.3,0.1,11.8-3.5c2.4-3.4,4.8-9.4,9.7-9.5c7.8-0.3,8.3,8.5,4.4,15.8c-4.2,7.8,14,18.3,12.2,12.9
			C579.1,105.3,605.1,55.5,574.9,31.7z"/>
		<g>
			<path class="st0" d="M518,107.1c-2,0-4.1-0.9-5.8-2.6c-2-2-3.6-4.9-4.2-8.2c-0.7-3.3-0.4-6.5,0.7-9.1c1.2-2.8,3.2-4.6,5.6-5.1
				c4.9-1,10,3.8,11.3,10.6l0,0c1.4,6.9-1.5,13.2-6.4,14.2C518.9,107,518.5,107.1,518,107.1z M515.7,83.9c-0.3,0-0.7,0-1,0.1
				c-1.8,0.3-3.3,1.7-4.2,3.9c-1,2.3-1.2,5.1-0.7,8c0.6,2.9,1.9,5.4,3.7,7.2c1.7,1.6,3.7,2.4,5.5,2c3.8-0.7,6-6.1,4.9-11.9l0,0
				C522.8,87.9,519.3,83.9,515.7,83.9z"/>
		</g>
		<g>
			<path class="st0" d="M524.6,93c-0.5,0-0.9-0.3-1-0.8c-0.1-0.5,0.3-1,0.8-1.1l32.6-4.6c0.5-0.1,1,0.3,1.1,0.8
				c0.1,0.5-0.3,1-0.8,1.1L524.6,93C524.7,93,524.6,93,524.6,93z"/>
		</g>
	</g>
	<g>
		
			<linearGradient id="SVGID_11_" gradientUnits="userSpaceOnUse" x1="687.8869" y1="356.2804" x2="686.7379" y2="346.0815" gradientTransform="matrix(1 0 0 -1 0 600)">
			<stop  offset="0" style="stop-color:#D7D7D7"/>
			<stop  offset="1" style="stop-color:#BBBBBB"/>
		</linearGradient>
		<path class="st18" d="M705.4,254.5c0,0-1.5-5.6-6.6-10.1c-5.1-4.6-11-5.6-15.6-4.1s-9.1,4-12,4c-2.9,0-6,7.9,7.7,9.3
			C692.5,254.9,693.4,247.9,705.4,254.5z"/>
		<g>
			<g>
				
					<linearGradient id="SVGID_12_" gradientUnits="userSpaceOnUse" x1="687.605" y1="329.152" x2="611.3017" y2="306.4844" gradientTransform="matrix(1 0 0 -1 0 600)">
					<stop  offset="0" style="stop-color:#686868"/>
					<stop  offset="0.267" style="stop-color:#6F6F6F"/>
					<stop  offset="0.6447" style="stop-color:#828282"/>
					<stop  offset="1" style="stop-color:#999999"/>
				</linearGradient>
				<path class="st19" d="M687.9,237c-8.5-9.5-20.9-13-37.1-10.5c-61.3,9.5-74.2,58.8-74.3,59.3l7.5,1.1c0.1-0.4,11.7-44.2,68-52.9
					c13.5-2.1,23.4,0.6,30.1,8c20.2,22.5,4.8,80.8,4.7,81.4l7.4,2C695,322.9,710.9,262.6,687.9,237z"/>
				
					<linearGradient id="SVGID_13_" gradientUnits="userSpaceOnUse" x1="680.7031" y1="355.4592" x2="610.3463" y2="280.1024" gradientTransform="matrix(1 0 0 -1 0 600)">
					<stop  offset="0" style="stop-color:#686868"/>
					<stop  offset="0.267" style="stop-color:#6F6F6F"/>
					<stop  offset="0.6447" style="stop-color:#828282"/>
					<stop  offset="1" style="stop-color:#999999"/>
				</linearGradient>
				<path class="st20" d="M696.5,323.1l-44.8-78.8c-2-3.4-20.3,3.3-41,15.1c-20.7,11.8-35.9,24.1-34,27.5l17.6,30.9l0,0l0,0l3.4,6
					c0,2.2-2.9,3.2-14.4-1.1c-25.6-9.7-55.4-12-55.4-12c-3.1,1.6-2.2,5.2-2.2,5.2c46.3,6.8,90.5,40.4,94.3,47l0,0l1.6,2.8
					c2,3.4,20.3-3.3,41-15.1C683.2,338.8,698.4,326.5,696.5,323.1z"/>
			</g>
			<path class="st0" d="M521.1,313.1c0,0-9.7,3.5-12.4,8.6c-2.7,5.1,2.2,5.7,3.5,3.9C513.5,323.9,515.4,318.2,521.1,313.1z"/>
		</g>
		
			<linearGradient id="SVGID_14_" gradientUnits="userSpaceOnUse" x1="698.2184" y1="324.5144" x2="720.0878" y2="305.9128" gradientTransform="matrix(1 0 0 -1 0 600)">
			<stop  offset="0" style="stop-color:#D7D7D7"/>
			<stop  offset="1" style="stop-color:#BBBBBB"/>
		</linearGradient>
		<path class="st21" d="M705.4,253.4c-3.8-3.2-10.1-5.1-19.6-3.8c-9.5,1.1-11.4,6.4-10.4,10c1.1,3.6,5.9,4.4,5.9,4.4s-4,2.4-3.3,6.4
			c0.8,5.7,6.7,6.6,6.7,6.6s-3.6,1.9-2.3,6.5c1,3.3,5.9,4.6,5.9,4.6s-3.3,2.8-0.2,6.7c2.5,3.3,11.8,1.1,14.4,0.1
			c2.6-1,8.5,6.1,13.4,3.8c4.9-2.4,12.2-14.2,6.4-24.4C718.7,268.1,709.2,256.6,705.4,253.4z"/>
	</g>
</g>
<linearGradient id="SVGID_15_" gradientUnits="userSpaceOnUse" x1="262.8123" y1="157.9087" x2="262.8123" y2="131.295" gradientTransform="matrix(1 0 0 -1 0 600)">
	<stop  offset="0" style="stop-color:#F5F5F5"/>
	<stop  offset="0.4486" style="stop-color:#EFEFEF"/>
	<stop  offset="0.842" style="stop-color:#E4E4E4"/>
	<stop  offset="0.9203" style="stop-color:#E4E4E4"/>
</linearGradient>
<path class="st22" d="M297,437.4c0,0-10.8,3.8-42.7,3.8c-31.3,0-47.8-3.8-47.8-3.8s1.1,30,21.9,30s90.8,0,90.8,0
	S297,459.2,297,437.4z"/>
<path class="st2" d="M727.5,472.3c0,1.6-11.8,2.8-26.4,2.8s-26.4-1.2-26.4-2.8s11.8-2.8,26.4-2.8
	C715.6,469.5,727.5,470.8,727.5,472.3z"/>
<g>
	<g>
		
			<linearGradient id="SVGID_16_" gradientUnits="userSpaceOnUse" x1="992.6074" y1="315.7498" x2="1015.522" y2="276.9004" gradientTransform="matrix(0.4997 -0.8662 -0.8662 -0.4997 450.8612 1488.0677)">
			<stop  offset="5.418720e-02" style="stop-color:#D8D8D8"/>
			<stop  offset="0.3088" style="stop-color:#C2C2C2"/>
			<stop  offset="0.5806" style="stop-color:#B1B1B1"/>
			<stop  offset="0.7882" style="stop-color:#ACACAC"/>
		</linearGradient>
		<path class="st23" d="M717.7,465.6v6.7c0,1.6-9.6,2.9-21.5,2.9c-11.9,0-21.5-1.2-21.5-2.8v-6.7c0,1.6,9.6,2.8,21.5,2.8
			S717.7,467.1,717.7,465.6z"/>
	</g>
	<path class="st24" d="M681.7,467.7v6.7c1.3,0.2,2.7,0.2,4.2,0.4v-6.7C684.4,467.9,683,467.8,681.7,467.7z"/>
	<path class="st24" d="M678.5,467.2v6.7c0.4,0.1,0.8,0.2,1.2,0.2v-6.7C679.3,467.4,678.9,467.3,678.5,467.2z"/>
	<g>
		<g>
			
				<linearGradient id="SVGID_17_" gradientUnits="userSpaceOnUse" x1="1137.579" y1="391.7439" x2="1137.6829" y2="348.1349" gradientTransform="matrix(0.5002 -0.511 -0.8659 -0.2941 450.1983 1156.6906)">
				<stop  offset="0" style="stop-color:#D8D8D8"/>
				<stop  offset="0.4247" style="stop-color:#C8C8C8"/>
				<stop  offset="1" style="stop-color:#ACACAC"/>
			</linearGradient>
			<path class="st25" d="M674.6,465.6c0-1.6,9.6-2.9,21.5-2.9c11.9,0,21.5,1.2,21.5,2.9c0,1.6-9.6,2.9-21.5,2.9
				S674.6,467.2,674.6,465.6z"/>
		</g>
		<path class="st26" d="M691.4,463.6c-2.4,0.1-4.7,0.3-6.4,0.5c-2,0.2-3.4,0.6-4.2,1c-0.3,0.2-0.4,0.3-0.4,0.5
			c0,0.2,0.2,0.3,0.4,0.5c0.7,0.4,2.1,0.7,4.1,1c1.7,0.2,3.9,0.4,6.4,0.5c1.6,0.1,3.2,0.1,4.8,0.1s3.2,0,4.7-0.1
			c2.4-0.1,4.7-0.2,6.4-0.5c2-0.2,3.5-0.6,4.2-1c0.3-0.2,0.4-0.3,0.4-0.5c0-0.2-0.2-0.3-0.4-0.5c-0.7-0.4-2.1-0.7-4.2-1
			c-1.8-0.2-3.9-0.4-6.4-0.5c-1.5-0.1-3.1-0.1-4.8-0.1C694.5,463.5,692.9,463.5,691.4,463.6z M710.6,465.6c0,1.1-6.4,2-14.4,2
			s-14.4-0.8-14.4-1.9s6.4-2,14.4-2C704.1,463.7,710.6,464.5,710.6,465.6z"/>
	</g>
</g>
<path class="st2" d="M456,473.6c0,1.6-11.8,2.8-26.4,2.8c-14.6,0-26.4-1.2-26.4-2.8s11.8-2.8,26.4-2.8
	C444.2,470.8,456,472,456,473.6z"/>
<g>
	<g>
		
			<linearGradient id="SVGID_18_" gradientUnits="userSpaceOnUse" x1="855.8586" y1="550.1818" x2="878.7731" y2="511.3325" gradientTransform="matrix(0.4997 -0.8662 -0.8662 -0.4997 450.8612 1488.0677)">
			<stop  offset="5.418720e-02" style="stop-color:#D8D8D8"/>
			<stop  offset="0.3088" style="stop-color:#C2C2C2"/>
			<stop  offset="0.5806" style="stop-color:#B1B1B1"/>
			<stop  offset="0.7882" style="stop-color:#ACACAC"/>
		</linearGradient>
		<path class="st27" d="M446.3,466.9v6.7c0,1.6-9.6,2.9-21.5,2.9s-21.5-1.2-21.5-2.8v-6.7c0,1.6,9.6,2.8,21.5,2.8
			C436.7,469.6,446.3,468.4,446.3,466.9z"/>
	</g>
	<path class="st24" d="M410.3,469v6.7c1.3,0.2,2.7,0.2,4.2,0.4v-6.7C412.9,469.2,411.5,469.1,410.3,469z"/>
	<path class="st24" d="M407.1,468.5v6.7c0.4,0.1,0.8,0.2,1.2,0.2v-6.7C407.9,468.7,407.5,468.6,407.1,468.5z"/>
	<g>
		<g>
			
				<linearGradient id="SVGID_19_" gradientUnits="userSpaceOnUse" x1="1000.3966" y1="625.8878" x2="1000.5005" y2="582.2789" gradientTransform="matrix(0.5002 -0.511 -0.8659 -0.2941 450.1983 1156.6906)">
				<stop  offset="0" style="stop-color:#D8D8D8"/>
				<stop  offset="0.4247" style="stop-color:#C8C8C8"/>
				<stop  offset="1" style="stop-color:#ACACAC"/>
			</linearGradient>
			<path class="st28" d="M403.2,466.9c0-1.6,9.6-2.9,21.5-2.9c11.9,0,21.5,1.2,21.5,2.9c0,1.6-9.6,2.9-21.5,2.9
				C412.9,469.7,403.2,468.5,403.2,466.9z"/>
		</g>
		<path class="st26" d="M420,464.9c-2.4,0.1-4.7,0.3-6.4,0.5c-2,0.2-3.4,0.6-4.2,1c-0.3,0.2-0.4,0.3-0.4,0.5c0,0.2,0.2,0.3,0.4,0.5
			c0.7,0.4,2.1,0.7,4.1,1c1.7,0.2,3.9,0.4,6.4,0.5c1.6,0.1,3.2,0.1,4.8,0.1c1.6,0,3.2,0,4.7-0.1c2.4-0.1,4.7-0.2,6.4-0.5
			c2-0.2,3.5-0.6,4.2-1c0.3-0.2,0.4-0.3,0.4-0.5c0-0.2-0.2-0.3-0.4-0.5c-0.7-0.4-2.1-0.7-4.2-1c-1.8-0.2-3.9-0.4-6.4-0.5
			c-1.5-0.1-3.1-0.1-4.8-0.1C423.1,464.7,421.5,464.8,420,464.9z M439.2,466.9c0,1.1-6.4,2-14.4,2c-8,0-14.4-0.8-14.4-1.9
			s6.4-2,14.4-2C432.7,464.9,439.2,465.8,439.2,466.9z"/>
	</g>
</g>
<ellipse class="st2" cx="638.4" cy="472.8" rx="31.3" ry="3.3"/>
<g>
	<g>
		<g>
			
				<linearGradient id="SVGID_20_" gradientUnits="userSpaceOnUse" x1="958.472" y1="373.9406" x2="981.3865" y2="335.0913" gradientTransform="matrix(0.4997 -0.8662 -0.8662 -0.4997 450.8612 1488.0677)">
				<stop  offset="5.418720e-02" style="stop-color:#D8D8D8"/>
				<stop  offset="0.3088" style="stop-color:#C2C2C2"/>
				<stop  offset="0.5806" style="stop-color:#B1B1B1"/>
				<stop  offset="0.7882" style="stop-color:#ACACAC"/>
			</linearGradient>
			<path class="st29" d="M650.3,466v6.7c0,1.6-9.6,2.9-21.5,2.9c-11.9,0-21.5-1.2-21.5-2.8v-6.7c0,1.6,9.6,2.8,21.5,2.8
				C640.5,468.8,650.3,467.6,650.3,466z"/>
		</g>
		<path class="st24" d="M614.3,468.2v6.7c1.3,0.2,2.7,0.2,4.2,0.4v-6.7C616.9,468.4,615.5,468.3,614.3,468.2z"/>
		<path class="st24" d="M611,467.7v6.7c0.4,0.1,0.8,0.2,1.2,0.2v-6.7C611.8,467.8,611.4,467.8,611,467.7z"/>
		<g>
			<path class="st30" d="M607.1,466.1c0-1.6,9.6-2.9,21.5-2.9c11.9,0,21.5,1.2,21.5,2.9c0,1.6-9.6,2.9-21.5,2.9
				C616.8,468.9,607.2,467.7,607.1,466.1z"/>
		</g>
	</g>
	<g>
		<g>
			
				<linearGradient id="SVGID_21_" gradientUnits="userSpaceOnUse" x1="965.1875" y1="377.815" x2="988.1021" y2="338.9657" gradientTransform="matrix(0.4997 -0.8662 -0.8662 -0.4997 450.8612 1488.0677)">
				<stop  offset="5.418720e-02" style="stop-color:#D8D8D8"/>
				<stop  offset="0.3088" style="stop-color:#C2C2C2"/>
				<stop  offset="0.5806" style="stop-color:#B1B1B1"/>
				<stop  offset="0.7882" style="stop-color:#ACACAC"/>
			</linearGradient>
			<path class="st31" d="M650.3,458.3v6.7c0,1.6-9.6,2.9-21.5,2.9c-11.9,0-21.5-1.2-21.5-2.8v-6.7c0,1.6,9.6,2.8,21.5,2.8
				C640.5,461.1,650.3,459.8,650.3,458.3z"/>
		</g>
		<path class="st24" d="M614.3,460.4v6.7c1.3,0.2,2.7,0.2,4.2,0.4v-6.7C616.9,460.7,615.5,460.5,614.3,460.4z"/>
		<path class="st24" d="M611,459.9v6.7c0.4,0.1,0.8,0.2,1.2,0.2v-6.7C611.8,460.1,611.4,460,611,459.9z"/>
		<g>
			<path class="st30" d="M607.1,458.3c0-1.6,9.6-2.9,21.5-2.9c11.9,0,21.5,1.2,21.5,2.9c0,1.6-9.6,2.9-21.5,2.9
				C616.8,461.1,607.2,459.9,607.1,458.3z"/>
		</g>
	</g>
	<g>
		<g>
			
				<linearGradient id="SVGID_22_" gradientUnits="userSpaceOnUse" x1="971.9734" y1="381.7308" x2="994.8879" y2="342.8815" gradientTransform="matrix(0.4997 -0.8662 -0.8662 -0.4997 450.8612 1488.0677)">
				<stop  offset="5.418720e-02" style="stop-color:#D8D8D8"/>
				<stop  offset="0.3088" style="stop-color:#C2C2C2"/>
				<stop  offset="0.5806" style="stop-color:#B1B1B1"/>
				<stop  offset="0.7882" style="stop-color:#ACACAC"/>
			</linearGradient>
			<path class="st32" d="M650.3,450.5v6.7c0,1.6-9.6,2.9-21.5,2.9c-11.9,0-21.5-1.2-21.5-2.8v-6.7c0,1.6,9.6,2.8,21.5,2.8
				C640.5,453.3,650.3,452,650.3,450.5z"/>
		</g>
		<path class="st24" d="M614.3,452.6v6.7c1.3,0.2,2.7,0.2,4.2,0.4V453C616.9,452.9,615.5,452.7,614.3,452.6z"/>
		<path class="st24" d="M611,452.2v6.7c0.4,0.1,0.8,0.2,1.2,0.2v-6.7C611.8,452.3,611.4,452.2,611,452.2z"/>
		<g>
			<path class="st30" d="M607.1,450.5c0-1.6,9.6-2.9,21.5-2.9c11.9,0,21.5,1.2,21.5,2.9c0,1.6-9.6,2.9-21.5,2.9
				C616.8,453.4,607.1,452.2,607.1,450.5z"/>
		</g>
	</g>
	<g>
		<g>
			
				<linearGradient id="SVGID_23_" gradientUnits="userSpaceOnUse" x1="978.1639" y1="386.6793" x2="1001.0784" y2="347.83" gradientTransform="matrix(0.4997 -0.8662 -0.8662 -0.4997 450.8612 1488.0677)">
				<stop  offset="5.418720e-02" style="stop-color:#D8D8D8"/>
				<stop  offset="0.3088" style="stop-color:#C2C2C2"/>
				<stop  offset="0.5806" style="stop-color:#B1B1B1"/>
				<stop  offset="0.7882" style="stop-color:#ACACAC"/>
			</linearGradient>
			<path class="st33" d="M649,442.6v6.7c0,1.6-9.6,2.9-21.5,2.9c-11.9,0-21.5-1.2-21.5-2.8v-6.7c0,1.6,9.6,2.8,21.5,2.8
				S649,444.2,649,442.6z"/>
		</g>
		<path class="st24" d="M613,444.7v6.7c1.3,0.2,2.7,0.2,4.2,0.4v-6.7C615.7,445.1,614.4,444.9,613,444.7z"/>
		<path class="st24" d="M609.9,444.3v6.7c0.4,0.1,0.8,0.2,1.2,0.2v-6.7C610.7,444.4,610.2,444.3,609.9,444.3z"/>
		<g>
			<path class="st30" d="M605.9,442.7c0-1.6,9.6-2.9,21.5-2.9c11.9,0,21.5,1.2,21.5,2.9c0,1.6-9.6,2.9-21.5,2.9
				S605.9,444.3,605.9,442.7z"/>
		</g>
	</g>
	<g>
		<g>
			
				<linearGradient id="SVGID_24_" gradientUnits="userSpaceOnUse" x1="985.6556" y1="389.2082" x2="1008.5702" y2="350.3589" gradientTransform="matrix(0.4997 -0.8662 -0.8662 -0.4997 450.8612 1488.0677)">
				<stop  offset="5.418720e-02" style="stop-color:#D8D8D8"/>
				<stop  offset="0.3088" style="stop-color:#C2C2C2"/>
				<stop  offset="0.5806" style="stop-color:#B1B1B1"/>
				<stop  offset="0.7882" style="stop-color:#ACACAC"/>
			</linearGradient>
			<path class="st34" d="M650.6,434.9v6.7c0,1.6-9.6,2.9-21.5,2.9c-11.9,0-21.5-1.2-21.5-2.8V435c0,1.6,9.6,2.8,21.5,2.8
				S650.6,436.4,650.6,434.9z"/>
		</g>
		<path class="st24" d="M614.6,437v6.7c1.3,0.2,2.7,0.2,4.2,0.4v-6.7C617.3,437.3,615.9,437.2,614.6,437z"/>
		<path class="st24" d="M611.4,436.5v6.7c0.4,0.1,0.8,0.2,1.2,0.2v-6.7C612.2,436.7,611.8,436.6,611.4,436.5z"/>
		<g>
			<g>
				
					<linearGradient id="SVGID_25_" gradientUnits="userSpaceOnUse" x1="1149.1826" y1="475.9189" x2="1149.2864" y2="432.3101" gradientTransform="matrix(0.5002 -0.511 -0.8659 -0.2941 450.1983 1156.6906)">
					<stop  offset="0" style="stop-color:#D8D8D8"/>
					<stop  offset="0.4247" style="stop-color:#C8C8C8"/>
					<stop  offset="1" style="stop-color:#ACACAC"/>
				</linearGradient>
				<path class="st35" d="M607.5,435c0-1.6,9.6-2.9,21.5-2.9c11.9,0,21.5,1.2,21.5,2.9c0,1.6-9.6,2.9-21.5,2.9
					S607.5,436.5,607.5,435z"/>
			</g>
			<path class="st26" d="M624.3,432.9c-2.4,0.1-4.7,0.3-6.4,0.5c-2,0.2-3.4,0.6-4.2,1c-0.3,0.2-0.4,0.3-0.4,0.5
				c0,0.2,0.2,0.3,0.4,0.5c0.7,0.4,2.1,0.7,4.1,1c1.7,0.2,3.9,0.4,6.4,0.5c1.6,0.1,3.2,0.1,4.8,0.1c1.6,0,3.2,0,4.7-0.1
				c2.4-0.1,4.7-0.2,6.4-0.5c2-0.2,3.5-0.6,4.2-1c0.3-0.2,0.4-0.3,0.4-0.5s-0.2-0.3-0.4-0.5c-0.7-0.4-2.1-0.7-4.2-1
				c-1.8-0.2-3.9-0.4-6.4-0.5c-1.5-0.1-3.1-0.1-4.8-0.1C627.4,432.8,625.8,432.9,624.3,432.9z M643.5,434.9c0,1.1-6.4,2-14.4,2
				s-14.4-0.8-14.4-1.9c0-1.1,6.4-2,14.4-2C637,433,643.5,433.8,643.5,434.9z"/>
		</g>
	</g>
</g>
<ellipse class="st2" cx="533.1" cy="485.7" rx="50.5" ry="5.4"/>
<g>
	<g>
		
			<linearGradient id="SVGID_26_" gradientUnits="userSpaceOnUse" x1="536.627" y1="118.7335" x2="482.6698" y2="118.7335" gradientTransform="matrix(1 0 0 -1 0 600)">
			<stop  offset="0" style="stop-color:#686868"/>
			<stop  offset="0.267" style="stop-color:#6F6F6F"/>
			<stop  offset="0.6447" style="stop-color:#828282"/>
			<stop  offset="1" style="stop-color:#999999"/>
		</linearGradient>
		<path class="st36" d="M482.5,475.2v10.5c0,0.9,12.2,1.6,27.1,1.6c14.9,0,27.1-0.7,27.1-1.6v-10.5H482.5z"/>
		
			<linearGradient id="SVGID_27_" gradientUnits="userSpaceOnUse" x1="511.8244" y1="118.7335" x2="537.3938" y2="118.7335" gradientTransform="matrix(1 0 0 -1 0 600)">
			<stop  offset="0" style="stop-color:#686868"/>
			<stop  offset="0.267" style="stop-color:#6F6F6F"/>
			<stop  offset="0.6447" style="stop-color:#828282"/>
			<stop  offset="1" style="stop-color:#999999"/>
		</linearGradient>
		<path class="st37" d="M536.7,485.7v-10.5h-22.9v12.2C526.8,487.2,536.7,486.5,536.7,485.7z"/>
	</g>
	<g>
		
			<linearGradient id="SVGID_28_" gradientUnits="userSpaceOnUse" x1="548.7589" y1="157.7435" x2="470.0605" y2="157.7435" gradientTransform="matrix(1 0 0 -1 0 600)">
			<stop  offset="0" style="stop-color:#686868"/>
			<stop  offset="0.267" style="stop-color:#6F6F6F"/>
			<stop  offset="0.6447" style="stop-color:#828282"/>
			<stop  offset="1" style="stop-color:#999999"/>
		</linearGradient>
		<path class="st38" d="M462.6,407.7l20,67.5c0,0.9,12.2,1.6,27.1,1.6c14.9,0,27.1-0.7,27.1-1.6l20-67.5H462.6z"/>
		
			<linearGradient id="SVGID_29_" gradientUnits="userSpaceOnUse" x1="516.0305" y1="163.9459" x2="546.0891" y2="154.0866" gradientTransform="matrix(1 0 0 -1 0 600)">
			<stop  offset="0" style="stop-color:#686868"/>
			<stop  offset="0.267" style="stop-color:#6F6F6F"/>
			<stop  offset="0.6447" style="stop-color:#828282"/>
			<stop  offset="1" style="stop-color:#999999"/>
		</linearGradient>
		<path class="st39" d="M462.6,407.7l2.9,9.6c9.3,0.9,25.6,1.5,44.2,1.5h0.1c5,0,8.9,4.2,8.4,9.2l-4.4,48.9
			c13-0.1,22.9-0.8,22.9-1.6l20-67.5L462.6,407.7L462.6,407.7z"/>
	</g>
	<g>
		<path class="st40" d="M461.2,389.7V411c0,1.6,21.6,2.9,48.4,2.9s48.4-1.3,48.4-2.9v-21.4L461.2,389.7L461.2,389.7z"/>
		<path class="st41" d="M558,389.7c0,1.6-21.6,2.9-48.4,2.9c-26.7,0-48.4-1.3-48.4-2.9c0-1.6,21.6-2.9,48.4-2.9
			C536.3,386.7,558,388,558,389.7z"/>
	</g>
</g>
<path class="st41" d="M493.5,390.6c0,0,0.8-35.3,1.6-70.7c0.2-8.8,0.4-17.6,0.6-26v-0.7c0-0.1,0-0.3,0-0.2v-0.4l-0.1-1.6
	c-0.1-1,0-2-0.2-3c-0.3-1.8-0.6-3.6-1.2-5.3c-0.5-1.8-1.4-3.3-2.1-4.8c-1-1.4-1.8-2.9-2.9-4c-1-1.2-2.2-2.2-3.3-3.2
	c-1.2-0.8-2.3-1.7-3.4-2.4c-2.2-1.4-4.3-2.3-6.1-3c-1.8-0.7-3.2-1.1-4.2-1.3s-1.5-0.3-1.5-0.3l0.2-1.1c0,0,0.6,0.1,1.6,0.2
	c1.1,0.2,2.5,0.6,4.4,1.1c1.9,0.7,4.1,1.5,6.5,2.9c1.2,0.6,2.4,1.5,3.8,2.4c1.2,1,2.5,2,3.7,3.3c1.3,1.1,2.3,2.7,3.3,4.2
	c0.9,1.6,2,3.3,2.5,5.2c0.8,1.8,1.1,3.9,1.6,6c0.2,1.1,0.2,2,0.3,3l0.2,1.6v0.4v0.5v0.7c0.2,8.2,0.4,17.1,0.6,26
	c0.8,35.3,1.6,70.7,1.6,70.7H493.5z"/>
<path class="st42" d="M435.4,254.5c0,0,4.4,8.5,17.7,12.1c13.3,3.6,18.7-3.3,18.7-3.3S471,256,457,252.2
	C444.6,248.9,435.4,254.5,435.4,254.5z"/>
<path class="st41" d="M495.6,309.2c0,0,1-1.7,2.6-4.2c1.6-2.4,3.9-5.6,6.4-8.7c1.2-1.5,2.6-2.9,3.9-4.2c0.7-0.7,1.3-1.2,2-1.8
	c0.7-0.6,1.2-1.1,1.8-1.5c1.2-0.8,2.2-1.6,2.9-2s1.1-0.7,1.1-0.7s-0.4,0.3-1.1,0.8c-0.7,0.5-1.6,1.3-2.6,2.3
	c-0.5,0.5-1.1,1.1-1.6,1.7c-0.5,0.7-1.1,1.3-1.6,2c-1.1,1.4-2.2,2.9-3.3,4.6c-2.1,3.2-3.9,6.5-5.2,9.1s-2,4.2-2,4.2L495.6,309.2z"/>
<path class="st42" d="M546,258.6c0,0-11.4-1.3-23.8,9.6c-12.4,10.9-9.1,20.8-9.1,20.8s7.8,4.2,21-7.3
	C545.6,271.6,546,258.6,546,258.6z"/>
<path class="st41" d="M495.4,344.3c0,0,0-0.4-0.2-1.2c-0.2-0.8-0.3-1.9-0.7-3.3c-0.3-1.3-0.8-2.9-1.5-4.4c-0.7-1.6-1.6-3.1-2.9-4.2
	c-1.2-1.1-2.9-1.7-4.5-1.5c-0.8,0.1-1.6,0.3-2.3,0.7c-0.7,0.3-1.4,0.7-2,1.1c-0.6,0.4-1.1,0.7-1.6,1.1c-0.5,0.3-0.8,0.7-1.1,1
	c-0.7,0.6-1,0.9-1,0.9s0.3-0.3,0.8-1c0.2-0.3,0.6-0.7,1.1-1.1c0.4-0.4,0.9-0.9,1.5-1.4c0.6-0.5,1.2-1,1.9-1.4
	c0.7-0.4,1.6-0.8,2.5-1.1c0.9-0.2,2-0.3,3-0.1c1.1,0.2,2,0.7,2.9,1.3c1.7,1.2,2.9,2.9,3.9,4.6c1,1.6,1.7,3.2,2.2,4.6
	c0.6,1.4,0.9,2.6,1.1,3.4c0.2,0.8,0.4,1.4,0.4,1.4L495.4,344.3z"/>
<g>
	<g>
		
			<linearGradient id="SVGID_30_" gradientUnits="userSpaceOnUse" x1="1189.351" y1="-78.586" x2="1227.2122" y2="-78.586" gradientTransform="matrix(-0.3365 0.9417 0.9417 0.3365 962.3759 -758.6694)">
			<stop  offset="5.418720e-02" style="stop-color:#D8D8D8"/>
			<stop  offset="0.3088" style="stop-color:#C2C2C2"/>
			<stop  offset="0.5806" style="stop-color:#B1B1B1"/>
			<stop  offset="0.7882" style="stop-color:#ACACAC"/>
		</linearGradient>
		<path class="st43" d="M482.1,332.1l3.6,1.6c6.4,2.7,8.2,12.6,4.2,22.2c-4.1,9.5-12.6,15.1-18.9,12.3l-3.6-1.6
			c6.4,2.7,14.9-2.8,18.9-12.3S488.6,334.8,482.1,332.1z"/>
	</g>
	<g>
		
			<linearGradient id="SVGID_31_" gradientUnits="userSpaceOnUse" x1="393.1066" y1="101.7414" x2="418.2473" y2="101.7414" gradientTransform="matrix(0.9202 0.3915 0.3915 -0.9202 61.6702 284.187)">
			<stop  offset="0" style="stop-color:#ACACAC"/>
			<stop  offset="0.5753" style="stop-color:#C8C8C8"/>
			<stop  offset="1" style="stop-color:#D8D8D8"/>
		</linearGradient>
		<path class="st44" d="M467.5,366.6c-6.4-2.7-8.2-12.6-4.2-22.2c4.1-9.5,12.6-15.1,18.9-12.3c6.4,2.7,8.2,12.6,4.2,22.2
			C482.3,363.9,473.8,369.4,467.5,366.6z"/>
	</g>
	<path class="st26" d="M465.2,349.8c-0.4,2.1-0.4,4.2-0.1,6c0.4,2,1.2,3.8,2.5,5c0.6,0.5,1.1,0.9,1.9,1.2c0.7,0.3,1.4,0.5,2.1,0.5
		c1.7,0.1,3.6-0.5,5.3-1.6c1.6-1,3-2.4,4.2-4.2c0.8-1.1,1.5-2.4,2-3.7c0.6-1.3,1-2.6,1.2-3.9c0.4-2.1,0.5-4.2,0.1-6
		c-0.4-2-1.2-3.8-2.5-5.1c-0.6-0.5-1.1-0.9-1.9-1.2c-0.7-0.3-1.4-0.5-2.1-0.5c-1.7-0.1-3.6,0.5-5.4,1.6c-1.6,1-3,2.4-4.2,4.2
		c-0.7,1.1-1.5,2.3-2,3.7C465.8,347.1,465.4,348.4,465.2,349.8z M479.7,337.8c4.2,1.8,5.5,8.5,2.9,14.9c-2.7,6.4-8.4,10.1-12.6,8.2
		c-4.2-1.8-5.5-8.5-2.9-14.9S475.4,336,479.7,337.8z"/>
	<path class="st24" d="M488.5,344.9l3.6,1.6c0-1.2,0-2.4-0.2-3.4l-3.6-1.6C488.4,342.6,488.5,343.7,488.5,344.9z"/>
	<path class="st24" d="M491.1,340l-3.6-1.6c0.2,0.7,0.4,1.2,0.6,2l3.6,1.6C491.5,341.2,491.4,340.5,491.1,340z"/>
</g>
<path class="st41" d="M496.2,293.1c0,0-0.2-0.2-0.5-0.7c-0.3-0.5-0.7-1.1-1.4-1.8c-0.6-0.7-1.3-1.6-2.2-2.4
	c-0.9-0.8-1.8-1.6-2.9-2.3c-0.5-0.3-1.1-0.6-1.6-0.8c-0.6-0.2-1.1-0.3-1.7-0.4c-0.6,0-1.1-0.1-1.6,0.1c-0.5,0.2-1.1,0.2-1.5,0.4
	c-0.4,0.2-0.8,0.4-1.1,0.7c-0.3,0.2-0.6,0.5-0.8,0.7c-0.4,0.4-0.7,0.6-0.7,0.6s0.2-0.2,0.7-0.7c0.2-0.2,0.4-0.5,0.7-0.7
	c0.3-0.2,0.7-0.5,1.1-0.8s1-0.4,1.5-0.7c0.6-0.2,1.2-0.2,1.9-0.3c0.7,0.1,1.3,0.1,2,0.2c0.7,0.2,1.3,0.3,2,0.7
	c1.3,0.6,2.4,1.3,3.5,2c1,0.8,2,1.6,2.7,2.3c0.7,0.7,1.3,1.3,1.7,1.8c0.4,0.5,0.7,0.7,0.7,0.7L496.2,293.1z"/>
<g>
	<g>
		
			<linearGradient id="SVGID_32_" gradientUnits="userSpaceOnUse" x1="401.1644" y1="11.8726" x2="418.1583" y2="-16.9389" gradientTransform="matrix(0.5763 0.8173 0.8173 -0.5763 238.1449 -36.6706)">
			<stop  offset="5.418720e-02" style="stop-color:#D8D8D8"/>
			<stop  offset="0.3088" style="stop-color:#C2C2C2"/>
			<stop  offset="0.5806" style="stop-color:#B1B1B1"/>
			<stop  offset="0.7882" style="stop-color:#ACACAC"/>
		</linearGradient>
		<path class="st45" d="M468.9,315.9l-3.9-1.8c-1.8-0.8-0.2-8,3.4-16c3.7-8,8.2-13.9,10-13l3.9,1.8c-1.8-0.8-6.3,5-10,13
			S467.1,315.1,468.9,315.9z"/>
	</g>
	<g>
		
			<linearGradient id="SVGID_33_" gradientUnits="userSpaceOnUse" x1="413.0341" y1="13.0627" x2="413.1112" y2="-19.2905" gradientTransform="matrix(0.5763 0.8173 0.8173 -0.5763 238.1449 -36.6706)">
			<stop  offset="0" style="stop-color:#D8D8D8"/>
			<stop  offset="0.4247" style="stop-color:#C8C8C8"/>
			<stop  offset="1" style="stop-color:#ACACAC"/>
		</linearGradient>
		<path class="st46" d="M482.3,286.8c1.8,0.8,0.2,8-3.4,16c-3.7,8-8.2,13.9-10,13c-1.8-0.8-0.2-8,3.4-16
			C476.1,291.9,480.5,286,482.3,286.8z"/>
	</g>
	<path class="st26" d="M479.4,299.2c0.7-1.7,1.1-3.3,1.4-4.6c0.3-1.5,0.4-2.6,0.2-3.3c-0.1-0.2-0.2-0.5-0.4-0.6
		c-0.2-0.1-0.4-0.1-0.7,0c-0.7,0.2-1.5,1.1-2.4,2.2c-0.8,1.1-1.7,2.4-2.5,4c-0.6,1-1.1,2-1.6,3.2c-0.5,1.1-1,2.2-1.4,3.2
		c-0.7,1.7-1.1,3.3-1.4,4.6c-0.3,1.5-0.4,2.7-0.2,3.3c0.1,0.2,0.2,0.5,0.4,0.6c0.2,0.1,0.4,0.1,0.7,0c0.7-0.2,1.5-1.1,2.4-2.3
		c0.8-1.1,1.7-2.4,2.5-4c0.6-1,1.1-2,1.6-3.2C478.6,301.4,479,300.3,479.4,299.2z M471.1,311.1c-1.2-0.6-0.2-5.4,2.3-10.8
		c2.4-5.4,5.5-9.3,6.7-8.7c1.2,0.6,0.2,5.4-2.3,10.8C475.4,307.8,472.3,311.6,471.1,311.1z"/>
	<path class="st24" d="M477.7,290.5l-3.9-1.8c-0.6,0.7-1.1,1.6-1.7,2.6l3.9,1.8C476.6,292.2,477.2,291.3,477.7,290.5z"/>
	<path class="st24" d="M479.3,288.6l-3.9-1.8c-0.2,0.2-0.4,0.5-0.7,0.7l3.9,1.8C478.8,289.1,479,288.9,479.3,288.6z"/>
</g>
<path class="st42" d="M523.9,334.4c0,0-1.9,5.2,1.9,12.2c3.8,7,8.8,6.6,8.8,6.6s2.8-3.3-1.1-10.7C529.9,336,523.9,334.4,523.9,334.4
	z"/>
<path class="st41" d="M528.3,390.6c0,0,0.1-3.1,0.2-7.8c0.1-2.3,0.2-5.1,0.2-7.9c0.1-1.5,0.1-2.9,0.2-4.5s0.1-3,0.2-4.7
	c0.1-1.6,0.3-3.3,0.7-4.7c0.3-1.6,0.9-3,1.6-4.4c0.7-1.4,1.6-2.5,2.4-3.6c1-1,2-1.9,3-2.5c1-0.7,2-1.1,2.9-1.6
	c0.9-0.4,1.7-0.6,2.4-0.8c1.3-0.3,2.1-0.5,2.1-0.5l0.2,0.8c0,0-0.7,0.2-2,0.6c-0.7,0.2-1.4,0.5-2.2,0.9c-0.8,0.4-1.7,0.9-2.6,1.6
	c-0.9,0.7-1.8,1.5-2.6,2.4c-0.7,1-1.6,2.1-2,3.3c-0.6,1.2-1,2.6-1.2,4.1s-0.4,2.9-0.3,4.4c0,1.5,0.1,3.1,0.1,4.6
	c0.1,1.6,0.1,3,0.2,4.5c0.1,2.9,0.2,5.6,0.2,7.9c0.2,4.7,0.2,7.8,0.2,7.8L528.3,390.6L528.3,390.6z"/>
<path class="st41" d="M528.7,378.2c0,0-0.8-1.6-1.7-3.2c-0.9-1.5-2.1-3.5-3.6-5.4c-0.7-0.9-1.5-1.9-2.2-2.6c-0.7-0.8-1.5-1.5-2.2-2
	c-0.7-0.6-1.3-0.9-1.8-1.1c-0.5-0.2-0.7-0.3-0.7-0.3s0.3,0.1,0.8,0.2c0.5,0.1,1.2,0.3,2,0.7c1.6,0.8,3.7,2.3,5.5,3.8
	c1.9,1.6,3.5,3.3,4.8,4.7c1.2,1.4,2,2.4,2,2.4L528.7,378.2z"/>
<g>
	<g>
		
			<linearGradient id="SVGID_34_" gradientUnits="userSpaceOnUse" x1="537.3422" y1="315.7193" x2="560.2483" y2="276.8842" gradientTransform="matrix(0.9897 0.1434 0.1434 -0.9897 -36.138 576.9593)">
			<stop  offset="5.418720e-02" style="stop-color:#D8D8D8"/>
			<stop  offset="0.3088" style="stop-color:#C2C2C2"/>
			<stop  offset="0.5806" style="stop-color:#B1B1B1"/>
			<stop  offset="0.7882" style="stop-color:#ACACAC"/>
		</linearGradient>
		<path class="st47" d="M562.4,380.7l-5.4,2.2c-2.4,1-8.1-7.2-12.5-18.2c-4.4-11-6-20.8-3.5-21.8l5.4-2.2c-2.4,1-0.9,10.8,3.5,21.8
			C554.3,373.5,559.9,381.7,562.4,380.7z"/>
	</g>
	<g>
		
			<linearGradient id="SVGID_35_" gradientUnits="userSpaceOnUse" x1="553.3268" y1="317.2916" x2="553.4307" y2="273.6824" gradientTransform="matrix(0.9897 0.1434 0.1434 -0.9897 -36.138 576.9593)">
			<stop  offset="0" style="stop-color:#D8D8D8"/>
			<stop  offset="0.4247" style="stop-color:#C8C8C8"/>
			<stop  offset="1" style="stop-color:#ACACAC"/>
		</linearGradient>
		<path class="st48" d="M546.4,340.7c2.4-1,8.1,7.2,12.5,18.2c4.4,11,6,20.8,3.5,21.8s-8.1-7.2-12.5-18.2
			C545.5,351.5,543.9,341.7,546.4,340.7z"/>
	</g>
	<path class="st26" d="M555.8,355c-1.1-2.2-2.1-4.1-3.2-5.6c-1.1-1.7-2.2-2.9-3.1-3.3c-0.3-0.2-0.7-0.2-1-0.1
		c-0.2,0.1-0.5,0.3-0.7,0.7c-0.3,0.9-0.3,2.4,0,4.4c0.2,1.8,0.8,3.9,1.6,6.2c0.5,1.5,1,3,1.6,4.6c0.6,1.6,1.2,2.9,1.9,4.3
		c1.1,2.2,2.1,4.1,3.2,5.6c1.1,1.7,2.3,2.9,3.1,3.3c0.3,0.2,0.7,0.2,1,0.1c0.2-0.1,0.5-0.3,0.7-0.7c0.3-0.9,0.3-2.4,0-4.4
		c-0.2-1.8-0.8-3.9-1.6-6.2c-0.5-1.5-1-2.9-1.6-4.5C557.1,357.8,556.4,356.4,555.8,355z M559.8,374.1c-1.6,0.7-5.4-4.8-8.4-12.2
		c-2.9-7.4-4-14-2.4-14.6c1.6-0.7,5.4,4.8,8.4,12.2C560.4,366.8,561.5,373.4,559.8,374.1z"/>
	<path class="st24" d="M545.7,348.6l-5.4,2.2c0.2,1.3,0.6,2.6,0.9,4.1l5.4-2.2C546.2,351.2,546,349.9,545.7,348.6z"/>
	<path class="st24" d="M545.2,345.3l-5.4,2.2c0,0.4,0.1,0.8,0.2,1.3l5.4-2.2C545.3,346.2,545.3,345.8,545.2,345.3z"/>
</g>
<path class="st42" d="M479.6,342.6c0,0,2.3,11.2,16.2,19.6c14,8.4,22.4,2.3,22.4,2.3s1.6-8.7-13.3-17.5
	C491.9,339.1,479.6,342.6,479.6,342.6z"/>
</svg>
