<?xml version="1.0" encoding="utf-8"?>
<!-- Generator: Adobe Illustrator 18.0.0, SVG Export Plug-In . SVG Version: 6.00 Build 0)  -->
<!DOCTYPE svg PUBLIC "-//W3C//DTD SVG 1.1//EN" "http://www.w3.org/Graphics/SVG/1.1/DTD/svg11.dtd">
<svg version="1.1" id="Layer_1" xmlns="http://www.w3.org/2000/svg" xmlns:xlink="http://www.w3.org/1999/xlink" x="0px" y="0px"
	 viewBox="0 0 312 250" enable-background="new 0 0 312 250" xml:space="preserve">
<g id="illustration">
	<g id="XMLID_5626_">
		<path id="XMLID_6363_" fill="#DEDEDE" d="M218.4,181.5l-7.5-4.3c0.2-0.6,0.3-1.2,0.3-1.7c0-0.1,0-0.2,0-0.3
			c0.4-1.3,0.6-2.6,0.6-3.9c0-2.2-0.7-4-2-4.9l0,0l-0.2-0.1c0,0-0.1-0.1-0.1-0.1c0,0-0.1,0-0.1-0.1l-34.4-19.9l0,0c0,0,0,0,0,0
			l-9.6-5.6l0,0c0,0,0,0-0.1,0l-3.9-2.3c-2.2-1-5.2-0.1-8,2.6c-2.2,2.1-3.8,4.9-4.5,7.9c-0.9,3.7-0.3,6.8,1.7,8.2l48.1,27.9
			c0,0,0,0,0.1,0c0,0,0,0,0.1,0l0,0l0.5,0.2l0,0c0.5,0.2,1,0.3,1.6,0.3c1.1,0,2.3-0.4,3.5-1.1c1.1-0.6,2.2-1.5,3.1-2.6
			c0.1,0,0.2-0.1,0.2-0.1c0.5-0.3,0.9-0.7,1.4-1.1l7.5,4.3c0.5,0.3,0.6,0.8,0.6,1c0,0.2-0.1,0.7-0.5,1l-0.7,0.4
			c-5.5,3.2-11.7,4.9-18,4.9c-6.3,0-12.6-1.7-18-4.9l-11.6-6.8c-3.1-1.8-6.9-1.8-10,0L140,191c-1.4-1.3-2.9-1.8-4-1.2l-28.5,16.9
			c0,0,0,0,0,0c0,0,0,0,0,0l0,0l-0.1,0.1l0,0.1c-0.7,0.5-1.1,1.4-1.1,2.5c0,2.4,1.6,5.3,3.7,6.5c0.6,0.4,1.2,0.5,1.8,0.5
			c0.3,0,0.6-0.1,0.9-0.2l0.1,0l0.2-0.1c0,0,0,0,0,0c0,0,0,0,0,0l28.5-16.9c1.1-0.8,1.4-2.4,0.8-4.5c0-0.1-0.1-0.2-0.1-0.3
			l18.1-10.5c1.9-1.1,4.2-1.1,6,0l11.6,6.8c6.1,3.6,13,5.4,20,5.4c7,0,13.9-1.9,20-5.4l0.7-0.4c1.6-0.9,2.5-2.6,2.5-4.4
			C221,184,220,182.4,218.4,181.5z"/>
		<path id="XMLID_6318_" fill="#DFDFDF" d="M135,179.1l-15.1,8.7c-1.7,1-4.6,0.9-6.6-0.3l-14.2-8.2c-2-1.1-2.2-2.8-0.5-3.8l6.5-3.7
			c6.5-3.7,17.7-3.3,25.2,1l4.2,2.4C136.5,176.4,136.7,178.1,135,179.1z"/>
		<path id="XMLID_6316_" fill="#DFDFDF" d="M78.4,146.3c19.1,8.6,24,23.5,10.9,33.1c-13,9.6-39,10.4-58.1,1.8
			c-19.1-8.6-24-23.5-10.9-33.1C33.3,138.5,59.3,137.7,78.4,146.3z"/>
		<path id="XMLID_6320_" fill="#DFDFDF" d="M295.8,154.2c13.6,7.9,13.6,20.6,0,28.5c-13.6,7.9-35.7,7.9-49.4,0
			c-13.6-7.9-13.6-20.6,0-28.5C260,146.3,282.1,146.3,295.8,154.2z"/>
	</g>
	<g id="XMLID_5041_">
		<g id="XMLID_5237_">
			<path id="XMLID_5683_" fill="#DEDEDE" d="M104,38.2H54.3v43l0,0c0,3.7,2.4,7.3,7.3,10.1c9.7,5.6,25.4,5.6,35.1,0
				c4.8-2.8,7.3-6.5,7.3-10.1l0,0V38.2z"/>
			<path id="XMLID_5688_" fill="#414242" d="M79.2,95.9c-6.4,0-12.9-1.4-17.8-4.2c-4.8-2.8-7.5-6.5-7.5-10.6V37.7h50.6v43.4
				c0,4-2.7,7.8-7.5,10.6C92.1,94.5,85.6,95.9,79.2,95.9z M54.8,38.7v42.5c0,3.6,2.5,7.1,7,9.7c9.5,5.5,25.1,5.5,34.6,0
				c4.5-2.6,7-6.1,7-9.7V38.7H54.8z"/>
		</g>
		<g id="XMLID_5236_">
			<rect id="XMLID_5687_" x="57" y="45.2" fill="#414242" width="1" height="42.9"/>
		</g>
		<g id="XMLID_5235_">
			<rect id="XMLID_5686_" x="98.4" y="46.9" fill="#414242" width="1" height="43"/>
		</g>
		<g id="XMLID_5234_">
			<rect id="XMLID_5685_" x="95.9" y="48.5" fill="#414242" width="1" height="43"/>
		</g>
		<g id="XMLID_5233_">
			<rect id="XMLID_5684_" x="90.1" y="51" fill="#414242" width="1" height="43"/>
		</g>
		<g id="XMLID_5232_">
			<path id="XMLID_5679_" fill="#239BC6" d="M95.5,47.6c-0.7,1.8-1.8,3.4-3.2,4.7c-1,0.9-2.2,1.8-3.2,2.5c-1.5,0.9-3,2.3-2.4,4.1
				c1.1,3.4-3.3,3.8-2.5,0c0.8-3.4-0.7-4.5-2.8-4.3c-2,0.2-2.8,3.8-1.8,7.9s0.1,6-2,5.9c-2.1-0.1-2.4-4-1.4-6.5
				c0.9-2.5,0.4-8.1-3-7.2c-1.8,0.5-4.7,2.7-6.5-1.4c-1.4-3.1-4.2-5-4.2-5l33.3-1.6L95.5,47.6z"/>
			<g id="XMLID_6796_">
				<path id="XMLID_6809_" fill="#82CEF0" d="M68.5,53.1c-1.1-2.4-3-4.1-3.8-4.7l-2.2,0.1c0,0,2.9,1.9,4.2,5c1.3,2.9,3.1,2.6,4.7,2
					C70.4,55.6,69.3,55,68.5,53.1z"/>
				<path id="XMLID_6810_" fill="#82CEF0" d="M78,61.7c0.9-2.5,0.4-8.1-3-7.2c-0.3,0.1-0.5,0.2-0.8,0.3c2.6,0.2,2.9,5,2.1,7.3
					c-0.9,2.5-0.7,6.5,1.4,6.5c0.6,0,1.1-0.1,1.5-0.4C77.3,67.8,77.1,64.1,78,61.7z"/>
				<path id="XMLID_6811_" fill="#82CEF0" d="M86,58.8c0.8-3.4-0.7-4.5-2.8-4.3c-0.4,0-0.7,0.2-1,0.4c1.6,0.2,2.6,1.4,2,4.3
					c-0.6,2.7,1.6,3.3,2.4,2.1C86,60.9,85.7,60.1,86,58.8z"/>
			</g>
			<path id="XMLID_5680_" fill="#414242" d="M77.8,68.9c0,0-0.1,0-0.1,0c-0.7,0-1.3-0.4-1.7-1c-1-1.5-0.9-4.3-0.2-6.2
				c0.6-1.7,0.5-4.9-0.7-6.1c-0.5-0.5-1-0.6-1.8-0.4c-0.3,0.1-0.6,0.2-1,0.4c-1.7,0.7-4.4,1.8-6.1-2c-1.3-2.9-4-4.7-4-4.8L61,47.9
				l35.5-1.7l-0.6,1.6c-0.7,1.9-1.9,3.6-3.3,4.9c-1,1-2.2,1.8-3.3,2.5c-1.9,1.1-2.6,2.3-2.2,3.6c0.4,1.3,0.2,2.4-0.6,3
				c-0.6,0.5-1.4,0.5-2,0.1c-0.8-0.5-1.1-1.7-0.8-3c0.3-1.5,0.2-2.6-0.3-3.2c-0.4-0.5-1.1-0.7-1.9-0.6c-0.4,0-0.7,0.2-1,0.6
				c-0.9,1.2-1,3.9-0.3,6.7c0.7,2.7,0.6,4.6-0.3,5.7C79.4,68.6,78.6,68.9,77.8,68.9z M74,54.1c0.7,0,1.4,0.3,1.9,0.8
				c1.5,1.7,1.5,5.3,0.9,7.1c-0.7,1.8-0.6,4.3,0.1,5.3c0.2,0.4,0.5,0.5,0.9,0.6c0.6,0,1.1-0.2,1.4-0.5c0.6-0.8,0.7-2.5,0.1-4.8
				c-0.8-3.1-0.6-6,0.5-7.5c0.4-0.6,1-1,1.7-1c1.2-0.1,2.2,0.2,2.8,0.9c0.7,0.9,0.9,2.2,0.5,4c-0.2,1-0.1,1.7,0.4,2
				c0.3,0.2,0.6,0.2,0.9-0.1c0.4-0.3,0.5-1,0.2-1.9c-0.4-1.2-0.3-3,2.6-4.7c1.1-0.6,2.2-1.5,3.2-2.4c1.3-1.2,2.4-2.8,3-4.5l0.5,0.2
				L95,47.4l0.1-0.2l-31.2,1.5c1,0.9,2.4,2.4,3.3,4.4c1.3,2.9,3,2.2,4.8,1.5c0.4-0.2,0.8-0.3,1.1-0.4C73.4,54.1,73.7,54.1,74,54.1z"
				/>
		</g>
		<g id="XMLID_5226_">
			<g id="XMLID_5231_">
				<path id="XMLID_5675_" fill="#F1F1F1" d="M96.7,28c9.7,5.6,9.7,14.7,0,20.3c-9.7,5.6-25.4,5.6-35.1,0c-9.7-5.6-9.7-14.7,0-20.3
					C71.3,22.4,87,22.4,96.7,28z"/>
				<path id="XMLID_5676_" fill="#414242" d="M79.2,53.2c-6.5,0-13-1.4-17.9-4.3c-4.9-2.8-7.6-6.7-7.6-10.8s2.7-7.9,7.6-10.8
					c9.9-5.7,26-5.7,35.8,0c4.9,2.8,7.6,6.7,7.6,10.8c0,4.1-2.7,7.9-7.6,10.8C92.1,51.8,85.7,53.2,79.2,53.2z M79.2,24.6
					c-6.2,0-12.4,1.4-17.2,4.1c-4.5,2.6-6.9,5.9-6.9,9.5s2.5,6.9,6.9,9.5c9.5,5.5,24.9,5.5,34.4,0c4.5-2.6,6.9-5.9,6.9-9.5
					c0-3.6-2.5-6.9-6.9-9.5C91.6,25.9,85.4,24.6,79.2,24.6z"/>
			</g>
			<g id="XMLID_5230_">
				<path id="XMLID_5671_" fill="#DFDFDF" d="M93.8,29.7c8.1,4.7,8.1,12.2,0,16.9c-8.1,4.7-21.1,4.7-29.2,0
					c-8.1-4.7-8.1-12.2,0-16.9C72.6,25.1,85.7,25.1,93.8,29.7z"/>
				<path id="XMLID_5672_" fill="#414242" d="M79.2,50.6c-5.4,0-10.7-1.2-14.8-3.5c-4.1-2.3-6.3-5.5-6.3-8.9s2.2-6.5,6.3-8.9
					c8.2-4.7,21.5-4.7,29.7,0c4.1,2.3,6.3,5.5,6.3,8.9c0,3.4-2.2,6.5-6.3,8.9C89.9,49.4,84.5,50.6,79.2,50.6z M79.2,26.7
					c-5.2,0-10.4,1.1-14.3,3.4c-3.7,2.2-5.8,5-5.8,8c0,3,2.1,5.8,5.8,8c7.9,4.6,20.8,4.6,28.7,0c3.7-2.2,5.8-5,5.8-8
					c0-3-2.1-5.8-5.8-8C89.6,27.9,84.4,26.7,79.2,26.7z"/>
			</g>
			<g id="XMLID_5229_">
				<path id="XMLID_5667_" fill="#A3A3A3" d="M81.7,38.7c1.4,0.8,1.4,2.1,0,3c-1.4,0.8-3.7,0.8-5.1,0c-1.4-0.8-1.4-2.1,0-3
					C78,37.9,80.3,37.9,81.7,38.7z"/>
				<path id="XMLID_5668_" fill="#414242" d="M79.2,40.8c-1,0-2-0.2-2.8-0.7c-0.8-0.5-1.3-1.2-1.3-1.9c0-0.7,0.5-1.4,1.3-1.9
					c1.6-0.9,4-0.9,5.6,0c0.8,0.5,1.3,1.2,1.3,1.9c0,0.7-0.5,1.4-1.3,1.9C81.2,40.5,80.2,40.8,79.2,40.8z M79.2,36.6
					c-0.8,0-1.7,0.2-2.3,0.5c-0.5,0.3-0.8,0.7-0.8,1.1c0,0.4,0.3,0.8,0.8,1.1c1.3,0.7,3.4,0.7,4.6,0c0.5-0.3,0.8-0.7,0.8-1.1
					c0-0.4-0.3-0.8-0.8-1.1C80.8,36.8,80,36.6,79.2,36.6z"/>
			</g>
			<g id="XMLID_5227_">
				<path id="XMLID_5663_" fill="#A3A3A3" d="M64.6,32.3c8.1-4.7,21.1-4.7,29.2,0c3.4,2,5.4,4.5,5.9,7c0,0,0,0,0,0
					c0.6-3.4-1.4-7-5.9-9.6c-8.1-4.7-21.1-4.7-29.2,0c-4.5,2.6-6.5,6.2-5.9,9.6c0,0,0,0,0,0C59.2,36.7,61.1,34.3,64.6,32.3z"/>
				<path id="XMLID_5664_" fill="#414242" d="M58.6,39.8l-0.4,0l-0.1-0.4c-0.6-3.8,1.6-7.4,6.2-10.1c8.2-4.7,21.5-4.7,29.7,0
					c4.6,2.6,6.8,6.3,6.2,10.1l-0.1,0.4l-0.8,0l-0.1-0.4c-0.5-2.5-2.5-4.9-5.7-6.7c-7.9-4.6-20.8-4.6-28.7,0l0,0
					c-3.2,1.8-5.2,4.2-5.7,6.7l-0.1,0.4L58.6,39.8z M79.2,28.3c5.4,0,10.7,1.2,14.8,3.5c2.3,1.3,4.1,3,5.1,4.7
					c-0.6-2.4-2.5-4.6-5.6-6.4c-7.9-4.6-20.8-4.6-28.7,0c-3.1,1.8-5,4-5.6,6.4c1-1.8,2.8-3.4,5.1-4.7l0,0
					C68.4,29.5,73.8,28.3,79.2,28.3z"/>
			</g>
		</g>
	</g>
	<g id="XMLID_6324_">
		<path id="XMLID_6317_" fill="#DFDFDF" d="M153.7,69.9c-6.4-3.7-11.6-12.7-11.6-20.1c0-3.6,1.2-6.2,3.3-7.4l0,0l-94.5,59l-3.5,2.2
			c0,0-4.3,2.7-4.3,2.7l0,0c-5.9-3.8-11.2-1.2-11.6,5.9c-0.4,7.6,4.9,17.1,11.6,21c0.4,0.2,112.9,64.6,125.3,71.7
			c0.7,0.4,1.5,0.4,2.2,0l108.6-62.3L153.7,69.9z"/>
		<g id="XMLID_5065_">
			<g id="XMLID_5067_">
				<path id="XMLID_5659_" fill="#82CFF1" d="M150.6,64.6c-6.4-3.7-11.6-12.7-11.6-20.1c0-3.6,1.2-6.2,3.3-7.4l0,0L47.7,96l-3.5,2.2
					c0,0-4.3,2.7-4.3,2.7l0,0c-5.9-3.8-11.2-1.2-11.6,5.9c-0.4,7.6,4.9,17.1,11.6,21c0.4,0.2,112.9,64.6,125.3,71.7
					c0.7,0.4,1.5,0.4,2.2,0L276,137.2L150.6,64.6z"/>
				<path id="XMLID_6794_" fill="#239BC6" d="M270.4,137.3c0-0.4-107.8,60.2-107.8,60.2c0.4,0.2,0,0,2.9,1.9c0.7,0.4,1.5,0.4,2.2,0
					l108.6-62.3L270.4,137.3z"/>
				<path id="XMLID_5660_" fill="#414242" d="M166.3,200.2c-0.5,0-0.9-0.1-1.4-0.4c-14-8-124.9-71.5-125.3-71.7
					c-6.9-4-12.3-13.8-11.9-21.4c0.2-3.6,1.6-6.2,4-7.4c2.3-1.2,5.2-0.8,8.1,1c0.9-0.6,4-2.5,4-2.5l3.5-2.2l95-59.3l0.4,0.9
					l-0.3,0.3c-1.9,1.2-3,3.7-3,7c0,7.2,5.1,16.1,11.4,19.7l126.2,73l-109.3,62.7C167.3,200.1,166.8,200.2,166.3,200.2z M34.7,99.6
					c-0.9,0-1.7,0.2-2.5,0.6c-2,1-3.3,3.4-3.4,6.6c-0.4,7.3,4.8,16.7,11.4,20.5c0.4,0.2,111.3,63.7,125.3,71.7
					c0.5,0.3,1.2,0.3,1.7,0L275,137.2L150.3,65.1c-6.5-3.8-11.9-13-11.9-20.6c0-2.1,0.4-3.9,1.1-5.3L48,96.4l-3.5,2.2l0,0
					c-0.2,0.1-0.6,0.4-2.2,1.4c-2.4,1.5-2.4,1.5-2.7,1.3C37.9,100.2,36.2,99.6,34.7,99.6z"/>
			</g>
			<g id="XMLID_5068_">
				<path id="XMLID_5655_" fill="#229CC7" d="M160.6,70.5l-10-5.8c-6.4-3.7-11.6-12.7-11.6-20.1c0-2,0.4-3.7,1.1-5l-1-0.5l-91.3,57
					l-3.5,2.2c-2.3,0.4-5.4,0.8-7.7,1.2c-4.4-1.1-7.8,1.7-8.2,7.4c-0.4,7.6,4.9,17.1,11.6,21c0.1,0,3.6,2,9.3,5.3
					c0.2,0.1,0.5,0.1,0.7,0L160.6,70.5z"/>
				<path id="XMLID_5656_" fill="#414242" d="M49.6,133.8c-0.2,0-0.4-0.1-0.6-0.2l-5.4-3.1c-2.5-1.4-3.9-2.2-3.9-2.2
					c-6.8-4-12.3-13.8-11.8-21.4c0.2-3.1,1.3-5.5,3.1-6.9c1.5-1.1,3.4-1.5,5.6-1l7.6-1.1l3.4-2.1L139,38.5l1.7,0.9l-0.2,0.4
					c-0.7,1.3-1,2.9-1,4.7c0,7.2,5.1,16.1,11.4,19.7l10.7,6.2l-0.7,0.4L50.2,133.6C50,133.7,49.8,133.8,49.6,133.8z M34.7,99.7
					c-1.2,0-2.3,0.3-3.2,1c-1.6,1.2-2.6,3.4-2.7,6.2c-0.4,7.3,4.8,16.7,11.4,20.5c0.1,0,1.5,0.8,3.9,2.2l5.4,3.1c0.1,0,0.2,0,0.2,0
					l109.9-62.3l-9.3-5.3c-6.5-3.8-11.9-13-11.9-20.6c0-1.8,0.3-3.4,0.9-4.8l-0.3-0.2L48,96.5l-3.7,2.3l-7.8,1.2l-0.1,0
					C35.8,99.8,35.2,99.7,34.7,99.7z"/>
			</g>
			<g id="XMLID_5071_">
				<path id="XMLID_5603_" fill="#82CFF1" d="M157.2,44.4c-1.9-2.8-4.3-5.1-6.9-6.6c-3.3-1.9-6.2-2-8.4-0.7l0,0L31.7,99.9
					c2.1-1,4.9-0.8,7.9,1c2.6,1.5,5.1,3.9,7,6.8l0,0L157.2,44.4z"/>
				<path id="XMLID_5652_" fill="#414242" d="M46.5,108.3l-0.3-0.4c-2-2.9-4.4-5.2-6.8-6.6c-2.8-1.6-5.4-1.9-7.5-0.9l-0.5-0.9
					l110.4-63l0,0c2.3-1.3,5.4-1,8.6,0.9c2.6,1.5,5,3.8,7.1,6.8l0.3,0.4l-0.5,0.3L46.5,108.3z M34.6,98.8c1.6,0,3.4,0.6,5.2,1.6
					c2.5,1.4,4.9,3.7,6.9,6.5l109.7-62.7c-1.9-2.6-4.1-4.7-6.4-6c-3-1.7-5.8-2-7.9-0.7l-0.2,0.2l0,0L34.6,98.8z"/>
			</g>
			<g id="XMLID_5040_">
				
					<rect id="XMLID_5651_" x="217.8" y="102.8" transform="matrix(0.4928 0.8701 -0.8701 0.4928 255.6035 -105.4493)" fill="#414242" width="1" height="127.5"/>
			</g>
			<g id="XMLID_5167_">
				
					<rect id="XMLID_5650_" x="99.1" y="9.3" transform="matrix(0.4927 0.8702 -0.8702 0.4927 114.0505 -49.5778)" fill="#414242" width="1" height="127.5"/>
			</g>
		</g>
	</g>
	<g id="XMLID_6325_">
		<path id="XMLID_6808_" fill="#414242" d="M166.1,135.1l-23.1-13.3l-17.3,10l23.1,13.3L166.1,135.1z M164.2,135.1l-7.2,4.1
			l-21.1-12.2l7.2-4.1L164.2,135.1z M134.9,127.7l21.1,12.2l-7.2,4.1l-21.1-12.2L134.9,127.7z"/>
		<path id="XMLID_6822_" fill="#414242" d="M219.7,122.4l-13.3-7.7l0,0l-8.8-5.1l-8.1,4.7L169,102.4l8.1-4.7l-5.4-3.1L113,120.9
			l-0.2,0.1l-5.2,11l5.1,2.9l3.4-2l8.8,5.1l-5.5,3.2l19.5,11.3l0,0l13.3,7.7l-5.5,3.2l-53.4-30.8l-0.5,0.8l2.7,1.6l0.3,4.5l1-0.1
			l-0.2-3.8l3,1.7l0.3,4.5l1-0.1l-0.2-3.8l2.8,1.6l0.3,4.5l1-0.1l-0.2-3.8l3,1.7l0.3,4.5l1-0.1l-0.2-3.8l3.2,1.9l0.3,4.5l1-0.1
			l-0.2-3.8l2.8,1.6l0.3,4.5l1-0.1l-0.2-3.8l3,1.7l0.3,4.5l1-0.1l-0.2-3.8l3,1.7l0.3,4.5l1-0.1l-0.2-3.8l3,1.7l0.3,4.5l1-0.1
			l-0.2-3.8l2.8,1.6l0.3,4.5l1-0.1l-0.2-3.8l3,1.7l0.3,4.5l1-0.1l-0.2-3.8l2.8,1.6l0.3,4.5l1-0.1l-0.2-3.8l6.3,3.6l6.5-3.8l0,0
			l6.4-3.7l0,0l3.4-2h0L219.7,122.4z M197.6,110.8l6.8,3.9l-3,1.8l-4.1,2.3l-6.8-3.9L197.6,110.8z M152.8,117.3l13.6,7.9l-5,2.9
			l-13.6-7.9L152.8,117.3z M167.4,124.6l-13.6-7.9l16.9-9.7l13.6,7.9L167.4,124.6z M185.3,114.3l-13.6-7.9l1.1-0.7l13.6,7.9
			L185.3,114.3z M108.9,131.6l4.6-9.9l58-25.9l3.5,2l-62.3,36L108.9,131.6z M165.5,104.4l2.5-1.4l3.8,2.2l-25.9,15l15.6,9l25.9-15
			l1.1,0.7l0,0l7.8,4.5l-27.6,15.9l-23.3,13.4l-5.4-3.1l-22.9-13.2L165.5,104.4z M121.4,141.2l4.5-2.6l18.6,10.7l-0.1,0.1l-4.4,2.5
			L121.4,141.2z M153.3,159.6l-12.3-7.1l34.1-19.7l22.3-12.9h0l8.1-4.7l12.3,7.1l-55.6,32.1l-2.6-1.5l34.2-19.8l-3.9-2.2l-37.7,21.7
			l6.5,3.7L153.3,159.6z M159.6,155.9l-5.5-3.2l35.7-20.6l1.9,1.1L157.5,153l3.6,2.1l-0.5,0.3L159.6,155.9z"/>
		<path id="XMLID_6833_" fill="#414242" d="M199.9,126.2l-3.9-2.2l-6.6,3.8l3.9,2.2L199.9,126.2z M196,125.1l1.9,1.1l-4.7,2.7
			l-1.9-1.1L196,125.1z"/>
		<path id="XMLID_6836_" fill="#414242" d="M112.6,127.5l3.9,2.2l6.6-3.8l-3.9-2.2L112.6,127.5z M116.5,128.6l-1.9-1.1l4.7-2.7
			l1.9,1.1L116.5,128.6z"/>
	</g>
	<g id="XMLID_5625_">
		<path id="XMLID_5627_" fill="#3F4040" d="M197.9,150.3c-0.8-0.5-1.2-0.9-1.4-1.2c-0.1-0.4,0.1-0.7,0.8-1.1c0.7-0.4,1.4-0.6,2-0.5
			c0.6,0.1,1.3,0.3,2.1,0.8l4.2,2.4c0.8,0.5,1.3,0.9,1.5,1.3c0.2,0.4-0.1,0.8-0.8,1.2c-0.7,0.4-1.4,0.6-2,0.5
			c-0.7-0.1-1.4-0.4-2.2-0.9L197.9,150.3z M200.3,148.8c-0.9-0.5-1.5-0.7-1.9-0.5c-0.1,0-0.2,0.1-0.3,0.1c-0.1,0.1-0.2,0.1-0.2,0.2
			c-0.1,0.1,0,0.2,0.1,0.4c0.1,0.2,0.4,0.4,0.8,0.6l4.3,2.5c0,0,0,0,0,0c0.8,0.5,1.4,0.7,1.7,0.7c0.2,0,0.3-0.1,0.5-0.1
			c0.1-0.1,0.2-0.1,0.3-0.2c0.1,0,0.1-0.1,0.1-0.2c0.1-0.2-0.3-0.6-1.1-1c0,0,0,0,0,0L200.3,148.8z"/>
		<path id="XMLID_5631_" fill="#3F4040" d="M202.5,147.7c-0.8-0.5-1.2-0.9-1.4-1.2c-0.1-0.4,0.1-0.7,0.8-1.1c0.7-0.4,1.4-0.6,2-0.5
			c0.6,0.1,1.3,0.3,2.1,0.8l4.2,2.4c0.8,0.5,1.3,0.9,1.5,1.3c0.2,0.4-0.1,0.8-0.8,1.2c-0.7,0.4-1.4,0.6-2,0.5
			c-0.7-0.1-1.4-0.4-2.2-0.9L202.5,147.7z M204.9,146.2c-0.9-0.5-1.5-0.7-1.9-0.5c-0.1,0-0.2,0.1-0.3,0.1c-0.1,0.1-0.2,0.1-0.2,0.2
			c-0.1,0.1,0,0.2,0.1,0.4c0.1,0.2,0.4,0.4,0.8,0.6l4.3,2.5c0,0,0,0,0,0c0.8,0.5,1.4,0.7,1.7,0.7c0.2,0,0.3-0.1,0.5-0.1
			c0.1-0.1,0.2-0.1,0.3-0.2c0.1,0,0.1-0.1,0.1-0.2c0.1-0.2-0.3-0.6-1.1-1c0,0,0,0,0,0L204.9,146.2z"/>
		<path id="XMLID_5634_" fill="#3F4040" d="M207,145c-0.8-0.5-1.2-0.9-1.4-1.2c-0.1-0.4,0.1-0.7,0.8-1.1c0.7-0.4,1.4-0.6,2-0.5
			c0.6,0.1,1.3,0.3,2.1,0.8l4.2,2.4c0.8,0.5,1.3,0.9,1.5,1.3s-0.1,0.8-0.8,1.2c-0.7,0.4-1.4,0.6-2,0.5c-0.7-0.1-1.4-0.4-2.2-0.9
			L207,145z M209.5,143.5c-0.9-0.5-1.5-0.7-1.9-0.5c-0.1,0-0.2,0.1-0.3,0.1c-0.1,0.1-0.2,0.1-0.2,0.2c-0.1,0.1,0,0.2,0.1,0.4
			s0.4,0.4,0.8,0.6l4.3,2.5c0,0,0,0,0,0c0.8,0.5,1.4,0.7,1.7,0.7c0.2,0,0.3-0.1,0.5-0.1c0.1-0.1,0.2-0.1,0.3-0.2
			c0.1,0,0.1-0.1,0.1-0.2c0.1-0.2-0.3-0.6-1.1-1c0,0,0,0,0,0L209.5,143.5z"/>
		<path id="XMLID_5637_" fill="#3F4040" d="M210.5,140.5l0.7-0.4l8.8,5.1l-1,0.6l-7.4-4.3c0,0.1,0,0.3-0.2,0.5
			c-0.1,0.2-0.3,0.3-0.5,0.4l-0.7-0.4c0.2-0.2,0.4-0.4,0.5-0.7C210.8,141,210.7,140.7,210.5,140.5z"/>
		<path id="XMLID_5639_" fill="#3F4040" d="M214.9,140.5c-0.8-0.5-1.2-0.9-1.4-1.2c-0.1-0.4,0.1-0.7,0.8-1.1c0.7-0.4,1.4-0.6,2-0.5
			c0.6,0.1,1.3,0.3,2.1,0.8l4.2,2.4c0.8,0.5,1.3,0.9,1.5,1.3c0.2,0.4-0.1,0.8-0.8,1.2c-0.7,0.4-1.4,0.6-2,0.5
			c-0.7-0.1-1.4-0.4-2.2-0.9L214.9,140.5z M217.3,139c-0.9-0.5-1.5-0.7-1.9-0.5c-0.1,0-0.2,0.1-0.3,0.1c-0.1,0.1-0.2,0.1-0.2,0.2
			c-0.1,0.1,0,0.2,0.1,0.4c0.1,0.2,0.4,0.4,0.8,0.6l4.3,2.5c0,0,0,0,0,0c0.8,0.5,1.4,0.7,1.7,0.7c0.2,0,0.3-0.1,0.5-0.1
			c0.1-0.1,0.2-0.1,0.3-0.2c0.1,0,0.1-0.1,0.1-0.2c0.1-0.2-0.3-0.6-1.1-1c0,0,0,0,0,0L217.3,139z"/>
		<path id="XMLID_5642_" fill="#3F4040" d="M220.5,138.1c-1.4-0.8-2.1-1.4-2.1-1.7c0-0.1,0-0.3,0-0.4c0.1-0.2,0.3-0.4,0.7-0.6
			c1-0.6,2.3-0.4,3.9,0.6c0.8,0.5,1.4,1,1.8,1.7c0.2,0.3,0.3,0.6,0.4,0.9c0.3,0.7,0.8,1.4,1.4,1.8l1.9-1.1l0.8,0.4l-2.9,1.7
			l-0.5-0.3c-0.7-0.4-1.3-1.1-1.9-2.3c0,0-0.1-0.2-0.3-0.5c-0.2-0.4-0.3-0.6-0.3-0.6c-0.1-0.2-0.3-0.4-0.5-0.6
			c-0.3-0.2-0.6-0.5-0.9-0.7c-0.4-0.2-0.7-0.4-0.9-0.5c-0.3-0.1-0.5-0.1-0.6-0.1c-0.1,0-0.3,0-0.4,0.1c-0.1,0.1-0.2,0.1-0.2,0.2
			c-0.1,0.2,0.3,0.6,1.1,1.1l1.1,0.7l-1,0.6L220.5,138.1z"/>
		<path id="XMLID_5644_" fill="#3F4040" d="M223.9,135.3c-0.8-0.5-1.2-0.9-1.4-1.2c-0.1-0.4,0.1-0.7,0.8-1.1c0.7-0.4,1.4-0.6,2-0.5
			c0.6,0.1,1.3,0.3,2.1,0.8l4.2,2.4c0.8,0.5,1.3,0.9,1.5,1.3c0.2,0.4-0.1,0.8-0.8,1.2c-0.7,0.4-1.4,0.6-2,0.5
			c-0.7-0.1-1.4-0.4-2.2-0.9L223.9,135.3z M226.4,133.8c-0.9-0.5-1.5-0.7-1.9-0.5c-0.1,0-0.2,0.1-0.3,0.1c-0.1,0.1-0.2,0.1-0.2,0.2
			c-0.1,0.1,0,0.2,0.1,0.4c0.1,0.2,0.4,0.4,0.8,0.6l4.3,2.5c0,0,0,0,0,0c0.8,0.5,1.4,0.7,1.7,0.7c0.2,0,0.3-0.1,0.5-0.1
			c0.1-0.1,0.2-0.1,0.3-0.2c0.1,0,0.1-0.1,0.1-0.2c0.1-0.2-0.3-0.6-1.1-1c0,0,0,0,0,0L226.4,133.8z"/>
		<path id="XMLID_5647_" fill="#3F4040" d="M233.1,132.3c0.9-0.2,1.9,0.1,3.1,0.8c0.9,0.5,1.4,0.9,1.5,1.3c0.1,0.4-0.1,0.8-0.7,1.1
			c-0.6,0.4-1.3,0.5-1.9,0.4c-0.7-0.1-1.4-0.4-2.3-0.9l-0.4-0.2l1-0.6l0.4,0.2c0.6,0.4,1.1,0.6,1.4,0.7c0.3,0.1,0.6,0,0.9-0.1
			c0.3-0.2,0.4-0.4,0.2-0.6c-0.1-0.2-0.5-0.5-1.2-0.9c-0.6-0.4-1.2-0.6-1.6-0.7s-0.8,0-1.1,0.2l-0.3,0.2l-0.8-0.5l0.3-0.2
			c0.2-0.1,0.4-0.3,0.4-0.4c0.1-0.2-0.2-0.6-1-1c0,0,0,0,0,0c-0.6-0.3-1-0.5-1.3-0.6c-0.3,0-0.6,0-0.8,0.2c-0.2,0.1-0.3,0.3-0.2,0.5
			c0.1,0.2,0.4,0.4,1,0.7l0.2,0.1l-1,0.6l-0.2-0.1c-0.8-0.5-1.2-0.9-1.4-1.2c-0.1-0.4,0.1-0.7,0.7-1.1c0.6-0.3,1.2-0.5,1.9-0.4
			c0.7,0.1,1.4,0.3,2.2,0.8C233.1,131.2,233.4,131.8,233.1,132.3z"/>
		<path id="XMLID_5649_" fill="#3F4040" d="M232.7,127.6l1.1-0.6l6.3,3.7l0.7-0.4l0.8,0.5l-0.7,0.4l1.7,1l-0.9,0.5l-1.7-1l-2.1,1.2
			l-0.7-0.4L232.7,127.6z M239.2,131.2l-4.6-2.6l3.4,3.4L239.2,131.2z"/>
	</g>
	<g id="XMLID_5144_">
		<g id="XMLID_5143_">
			<path id="XMLID_5479_" fill="#DFDFDF" d="M71.3,142.4c17.5,7.9,22,21.5,10.1,30.4c-12,8.8-35.8,9.6-53.3,1.6
				c-17.5-7.9-22-21.5-10.1-30.4C29.9,135.2,53.8,134.4,71.3,142.4z"/>
			<path id="XMLID_5480_" fill="#414242" d="M54.7,180.4c-9.1,0-18.7-1.8-26.9-5.5c-10.1-4.6-16.2-11.1-17-18
				c-0.5-5,1.8-9.5,6.8-13.2c12.1-8.9,36.2-9.7,53.8-1.7c10.1,4.6,16.2,11.1,17,18c0.5,5-1.8,9.5-6.8,13.2
				C75.2,177.9,65.2,180.4,54.7,180.4z M44.6,137.4c-10.3,0-20,2.4-26.3,7c-4.7,3.5-6.9,7.7-6.4,12.3c0.7,6.5,6.7,12.8,16.4,17.2
				c17.3,7.9,41,7.2,52.9-1.6c4.7-3.5,6.9-7.7,6.4-12.3c-0.7-6.5-6.7-12.8-16.4-17.2l0,0C63,139.2,53.6,137.4,44.6,137.4z"/>
		</g>
		<g id="XMLID_5191_">
			<path id="XMLID_5475_" fill="#A3A3A3" d="M72.4,142.6l8.6,14.1c0,0,5.8,3.7,5.2,10.4C91,159,85.8,149.1,72.4,142.6z"/>
			<path id="XMLID_5476_" fill="#414242" d="M85.6,169.2l0.2-2.2c0.5-6.3-4.9-9.9-5-9.9l-0.2-0.2l-9.5-15.5l1.5,0.7
				c8.1,3.9,13.5,9.2,15.2,14.9c1.1,3.5,0.7,7.1-1.2,10.3L85.6,169.2z M81.4,156.4c0.7,0.5,4.7,3.4,5.3,8.6c0.9-2.4,1-5,0.2-7.6
				c-1.5-5.1-6.2-9.8-13.2-13.5L81.4,156.4z"/>
		</g>
		<g id="XMLID_5192_">
			<path id="XMLID_5471_" fill="#A3A3A3" d="M16.8,166.8c-0.4-0.6-5.4-8,0-16.5c1.8-2.8,1.7-4.8,0.8-6.4
				C9,150.4,9.2,159.4,16.8,166.8z"/>
			<path id="XMLID_5472_" fill="#414242" d="M16.4,167.2c-4-4-6-8.4-5.8-12.7c0.3-4.1,2.5-7.8,6.6-10.9l0.4-0.3l0.3,0.5
				c1.2,2,0.9,4.3-0.8,6.9c-5.2,8.1-0.6,15.2,0,15.9L16.4,167.2z M17.4,144.7c-3.5,2.8-5.5,6.2-5.8,9.8c-0.2,3,0.8,6.1,3,9.1
				c-1.1-3.2-1.7-8.1,1.7-13.6C17.7,148,18,146.2,17.4,144.7z"/>
		</g>
		<g id="XMLID_5150_">
			<path id="XMLID_5467_" fill="#DFDFDF" d="M80.5,152.6C80.5,152.6,80.5,152.6,80.5,152.6c0,0-7.7-31.1-34.6-32.6
				c-25.9-1.4-32.4,30.1-32.4,30.1s0,0,0,0c-1.7,6.7,3.4,14,14.2,18.7c15.4,6.7,36.6,5.7,47.4-2.2C80.5,162.6,82.2,157.5,80.5,152.6
				z"/>
			<path id="XMLID_6816_" fill="#EEEEEE" d="M48.4,159.9c5.5-4.1,7.2-9.1,5.5-14c0,0,0,0,0,0s-4-15.9-16.1-25.5
				c-19.3,4.6-24.5,29.4-24.5,29.4s0,0,0,0c-1.5,5.8,2.2,12.1,10.4,16.8C33.3,166.6,42.5,164.3,48.4,159.9z"/>
			<path id="XMLID_5468_" fill="#414242" d="M50.2,173.8c-7.8,0-15.9-1.5-22.8-4.5c-10.7-4.7-16.2-11.9-14.6-19l0-0.2
				c0.1-0.3,7-31.9,32.9-30.5c26.9,1.5,35,32.6,35.1,33l0,0c1.8,5.2-0.3,10.5-5.7,14.5C69.3,171.5,60,173.8,50.2,173.8z M14,149.6
				L14,149.6l-0.1,0.6c-1.7,6.7,3.6,13.7,14,18.2c15.2,6.6,36.3,5.7,46.9-2.2c5.1-3.8,7-8.6,5.3-13.5l-0.2-0.7h0
				c-1.3-4.3-9.9-30.3-34-31.6C22.6,119.3,15.1,145.4,14,149.6z"/>
		</g>
		<g id="XMLID_5151_">
			<path id="XMLID_5463_" fill="#F0F0F0" d="M72.9,137.8c-7.4-16.5-17.1-24-27.2-22.8c-1.4,0.2-2.7,0.6-3.9,1.1l-9.3,4.7l-0.2,1.4
				l9.1-0.9l10.8,6.1l4.3,7.6l7.2,9.8l3.9,18.8l1.6,8.7c0,0,0.1,0,0.1,0l8.9-6.1c0.5-0.3,0.8-0.9,0.8-1.4
				C79,161.8,79.1,151.5,72.9,137.8z"/>
			<path id="XMLID_5464_" fill="#414242" d="M69.2,173l-0.5-0.2l-0.1-0.3l-1.6-8.7l-3.8-18.7l-7.1-9.7l-4.2-7.6l-10.5-6l-9.5,1
				l0.3-2.3l9.5-4.8c1.4-0.6,2.7-1,4.1-1.2c10.6-1.3,20.5,6.9,27.7,23l0,0c6.2,13.9,6.1,24.4,5.9,27.3c0,0.7-0.4,1.4-1,1.8L69.2,173
				z M41.4,120.8l11,6.3l4.3,7.7l7.3,9.9l3.9,18.8l1.5,8l8.3-5.8c0.4-0.2,0.6-0.6,0.6-1.1c0.2-2.8,0.3-13.1-5.9-26.8
				c-7.1-15.7-16.5-23.7-26.7-22.5c-1.3,0.2-2.5,0.5-3.8,1.1l-9.1,4.5l-0.1,0.6L41.4,120.8z"/>
		</g>
		<g id="XMLID_5154_">
			<path id="XMLID_5459_" fill="#DFDFDF" d="M67.5,154.5l-1.6,1.7l1.5,7.4l1.6,8.7c0,0,0.1,0,0.1,0l8.9-6.1c0.5-0.3,0.8-0.9,0.8-1.4
				c0.1-2.2,0.2-8.2-2.1-16.6L67.5,154.5z"/>
			<path id="XMLID_5460_" fill="#414242" d="M69.2,173l-0.5-0.2l-0.1-0.3l-1.6-8.7l-1.6-7.7l1.8-2l9.8-6.7l0.2,0.7
				c2.4,8.5,2.3,14.6,2.1,16.8c0,0.7-0.4,1.4-1,1.8L69.2,173z M66.5,156.4l1.5,7.2l1.5,8l8.3-5.8c0.4-0.2,0.6-0.6,0.6-1.1
				c0.1-2.1,0.2-7.8-1.9-15.8l-8.6,5.9L66.5,156.4z"/>
		</g>
		<g id="XMLID_5147_">
			<path id="XMLID_5453_" fill="#A3A3A3" d="M25,128.2c0,0,14.3-15,28.5,4.4c14.2,19.4,12.5,38.5,12.5,38.5l3,1.3c0,0,0.1,0,0.1,0
				c0.1-1.1,1.4-14.1-5.7-29.8c-7.4-16.5-17.1-24-27.2-22.8c-11.6,1.4-18.3,18.4-18.3,18.4S20.7,132.6,25,128.2z"/>
			<path id="XMLID_5456_" fill="#414242" d="M69,172.9c-0.1,0-0.2,0-0.2-0.1l-3.3-1.5l0-0.4c0-0.2,1.6-19.2-12.4-38.2
				c-4.5-6.1-9.4-9.4-14.6-9.7c-7.5-0.5-13,5.3-13.1,5.4l0,0c-4.2,4.3-7,9.8-7,9.9l-0.9-0.4c0.3-0.7,7-17.3,18.7-18.7
				c10.6-1.3,20.5,6.9,27.7,23c7.1,15.8,5.9,28.7,5.7,30.1l0,0.3l-0.3,0.2C69.2,172.9,69.1,172.9,69,172.9z M66.4,170.8l2.2,1
				c0.2-2.9,0.7-14.8-5.7-29C55.9,127,46.4,119,36.2,120.3c-4.9,0.6-8.9,4.1-11.9,7.8c0.1-0.1,0.2-0.2,0.2-0.3
				c0.3-0.3,6-6.1,13.9-5.7c5.5,0.4,10.7,3.7,15.4,10.1C67,150.2,66.6,168,66.4,170.8z"/>
		</g>
		<g id="XMLID_5148_">
			
				<rect id="XMLID_5455_" x="70.5" y="141.9" transform="matrix(0.5641 0.8257 -0.8257 0.5641 152.6893 5.6761)" fill="#414242" width="1" height="11"/>
		</g>
		<g id="XMLID_5149_">
			
				<rect id="XMLID_5454_" x="43.5" y="111.9" transform="matrix(0.4362 0.8998 -0.8998 0.4362 130.3673 26.5346)" fill="#414242" width="1" height="10.9"/>
		</g>
	</g>
	<g id="XMLID_6321_">
		<g id="XMLID_5086_">
			<path id="XMLID_6319_" fill="#DEDEDE" d="M271.7,222l-33.6,19.4c-1.2,0.7-2.6,0.7-3.8,0L200.8,222c-1-0.6-1-2.1,0-2.7l34.7-20
				c0.5-0.3,1.1-0.3,1.6,0l34.7,20C272.7,219.9,272.7,221.4,271.7,222z"/>
		</g>
		<g id="XMLID_5242_">
			<g id="XMLID_5260_">
				<polygon id="XMLID_5761_" fill="#DEDEDE" points="268.9,207.6 233.6,228 198.3,207.6 233.6,187.3 				"/>
			</g>
			<g id="XMLID_5259_">
				<polygon id="XMLID_5759_" fill="#DEDEDE" points="198.3,207.6 198.3,215.9 233.6,236.3 233.6,228 				"/>
			</g>
			<g id="XMLID_17238_">
				<g id="XMLID_5258_">
					<polygon id="XMLID_5757_" fill="#A2A2A2" points="268.9,207.6 268.9,215.9 233.6,236.3 233.6,228 					"/>
				</g>
				<g id="XMLID_5253_">
					<path id="XMLID_5751_" fill="#3F4040" d="M269.4,207.3l-0.5-0.3l-35.3-20.4l-35.3,20.4l-0.5,0.3v0.6v8.3l35.3,20.4l0.5,0.3
						l0.5-0.3l35.1-20.2l0.3-0.1v-8.3V207.3z M233.6,187.8l34.3,19.8l-16,9.2l-18.3,10.6l-34.3-19.8L233.6,187.8z M198.8,215.6v-7.1
						l34.3,19.8v7.1L198.8,215.6z M268.4,215.6l-34.3,19.8v-7.1l34.3-19.8V215.6z"/>
				</g>
			</g>
			<g id="XMLID_17242_">
				<g id="XMLID_5252_">
					<path id="XMLID_5748_" fill="#DEDEDE" d="M233.6,187.3l-22.3,12.8l0,0c-6,3.5-11.1-0.3-11.1-0.3c-0.6,6.5,6.1,12,8.9,14
						c0.3,0.3,0.7,0.5,1,0.7l23.4,13.5l35.3-20.4L233.6,187.3z"/>
				</g>
				<g id="XMLID_5251_">
					<path id="XMLID_5746_" fill="#EEEEEE" d="M210.4,214.5l23.4,13.5l31.7-18.3L234,191.5l-22.3,12.8l0,0c-5,2.9-9.3,0.8-10.6,0
						c1.7,4.4,6.1,8,8.2,9.5C209.7,214.1,210,214.3,210.4,214.5z"/>
				</g>
				<g id="XMLID_5248_">
					<path id="XMLID_5742_" fill="#3F4040" d="M233.6,228.6L210,215c-0.4-0.2-0.7-0.5-1.1-0.8c-2.9-2.1-9.8-7.8-9.1-14.5l0.1-0.9
						l0.7,0.5c0.2,0.1,4.9,3.5,10.5,0.3l22.5-13l35.3,20.4c0.5,0.3,0.5,0.9,0,1.2L233.6,228.6z M200.7,200.7
						c0,5.8,6.1,10.8,8.7,12.8c0.4,0.3,0.7,0.5,1,0.7l23.1,13.3l34.3-19.8l-34.3-19.8l-22,12.7C206.7,203.3,202.4,201.6,200.7,200.7
						z"/>
				</g>
			</g>
			<g id="XMLID_17239_">
				<g id="XMLID_5247_">
					<path id="XMLID_5739_" fill="#3F4040" d="M237.3,195.1c-0.9,0-1.7-0.2-2.4-0.6c-0.7-0.4-1.2-1-1.2-1.7c0-0.7,0.4-1.3,1.2-1.7
						l8-4.6c1.8-1,4.5-1,6.3,0c0.9,0.5,1.4,1.3,1.4,2.1c0,0.8-0.5,1.6-1.4,2.1l-5.1,2.9l-0.5-0.9l5.1-2.9c0.6-0.3,0.9-0.8,0.9-1.2
						c0-0.4-0.3-0.9-0.9-1.2c-1.4-0.8-3.8-0.8-5.2,0l-8,4.6c-0.4,0.2-0.6,0.5-0.6,0.8c0,0.3,0.2,0.6,0.6,0.8c1,0.6,2.8,0.6,3.8,0
						l7.1-4.1l0.5,0.9l-7.1,4.1C239,194.9,238.2,195.1,237.3,195.1z"/>
				</g>
			</g>
			<g id="XMLID_17244_">
				<g id="XMLID_5246_">
					<polygon id="XMLID_5736_" fill="#3F4040" points="233.3,230.9 198,211 198.5,210.4 233.8,230.3 					"/>
				</g>
			</g>
			<g id="XMLID_17245_">
				<g id="XMLID_5245_">
					<polygon id="XMLID_5733_" fill="#3F4040" points="233.3,234.1 198,213.8 198.5,213.3 233.8,233.6 					"/>
				</g>
			</g>
			<g id="XMLID_17241_">
				<g id="XMLID_5244_">
					<polygon id="XMLID_5730_" fill="#3F4040" points="233.8,231.2 233.8,230.3 268.7,210.4 268.6,211.2 					"/>
				</g>
			</g>
			<g id="XMLID_17243_">
				<g id="XMLID_5243_">
					<polygon id="XMLID_5727_" fill="#3F4040" points="233.8,233.9 233.8,233 268.7,213.1 268.6,214 					"/>
				</g>
			</g>
		</g>
	</g>
	<g id="XMLID_6323_">
		<path id="XMLID_6322_" fill="#DEDEDE" d="M136.6,240.8l-4.9-4.8l-0.1,0c-0.2-0.8-0.8-1.6-1.6-2l-65.3-37.2
			c-1.6-0.9-3.7-0.4-4.6,1.3c-0.9,1.6-0.4,3.7,1.3,4.6l65.3,37.2c0.7,0.4,1.5,0.5,2.3,0.4l0.2,0.2l6.4,2.1c0.4,0.1,0.9,0,1.1-0.4
			C137,241.6,136.9,241.1,136.6,240.8z"/>
		<g id="XMLID_5211_">
			<g id="XMLID_5206_">
				<g id="XMLID_5219_">
					<g id="XMLID_5225_">
						<path id="XMLID_5723_" fill="#82CEF0" d="M129.2,229.8l-65.3-37.2c-1.6-0.9-3.7-0.4-4.6,1.3l0,0c-0.9,1.6-0.4,3.7,1.3,4.6
							l65.3,37.2c1.6,0.9,3.7,0.4,4.6-1.3l0,0C131.4,232.8,130.8,230.7,129.2,229.8z"/>
					</g>
					<g id="XMLID_5224_">
						<path id="XMLID_5721_" fill="#249AC5" d="M129.9,232l-65.3-37.2c-1.6-0.9-3.7-0.4-4.6,1.3l0,0c-0.9,1.6,0.6,2.6,2.2,3.6
							l64.3,36.3c1.6,0.9,3.6,1.3,4.5-0.3l0,0C132,234,131.5,232.9,129.9,232z"/>
					</g>
					<g id="XMLID_5220_">
						<path id="XMLID_5717_" fill="#3F4040" d="M125.7,236.1l-65.3-37.2c-1.8-1-2.5-3.4-1.4-5.2c0.5-0.9,1.3-1.5,2.3-1.8
							c1-0.3,2-0.1,2.9,0.4l65.3,37.2c0.9,0.5,1.5,1.3,1.8,2.3c0.3,1,0.1,2-0.4,2.9c-0.5,0.9-1.3,1.5-2.3,1.8
							c-0.3,0.1-0.7,0.1-1,0.1C126.9,236.6,126.2,236.4,125.7,236.1z M61.5,192.8c-0.7,0.2-1.3,0.7-1.7,1.3
							c-0.4,0.7-0.5,1.4-0.3,2.2c0.2,0.7,0.7,1.3,1.3,1.7l65.3,37.2c0.7,0.4,1.4,0.5,2.2,0.3c0.7-0.2,1.3-0.7,1.7-1.3
							c0.4-0.7,0.5-1.4,0.3-2.2c-0.2-0.7-0.7-1.3-1.3-1.7l-65.3-37.2c-0.4-0.2-0.9-0.4-1.4-0.4C62,192.7,61.7,192.7,61.5,192.8z"/>
					</g>
				</g>
				<g id="XMLID_5213_">
					<g id="XMLID_5218_">
						<path id="XMLID_5714_" fill="#A2A2A2" d="M92.2,207l-23.8-13.6c-0.6-0.4-1.5-0.1-1.8,0.5l-0.1,0.2c-0.4,0.6-0.1,1.5,0.5,1.8
							l23.8,13.6c0.6,0.4,1.5,0.1,1.8-0.5l0.1-0.2C93.1,208.2,92.8,207.3,92.2,207z"/>
					</g>
					<g id="XMLID_5217_">
						<path id="XMLID_5712_" fill="#DEDEDE" d="M92,208.2l-23.8-13.6c-0.6-0.4-1.5-0.1-1.8,0.5l-0.1,0.2c-0.4,0.6-0.1,1.5,0.5,1.8
							l23.8,13.6c0.6,0.4,1.5,0.1,1.8-0.5l0.1-0.2C92.9,209.4,92.6,208.6,92,208.2z"/>
					</g>
					<g id="XMLID_5214_">
						<path id="XMLID_5708_" fill="#3F4040" d="M90.5,210l-23.8-13.6c-0.9-0.5-1.2-1.6-0.7-2.5l0.1-0.2c0.2-0.4,0.6-0.7,1.1-0.9
							s1-0.1,1.4,0.2l23.8,13.6c0.4,0.2,0.7,0.6,0.9,1.1c0.1,0.5,0.1,1-0.2,1.4l-0.1,0.2c-0.2,0.4-0.6,0.7-1.1,0.9
							c-0.2,0-0.3,0.1-0.5,0.1C91.1,210.2,90.8,210.1,90.5,210z M67.5,193.7c-0.2,0.1-0.4,0.2-0.5,0.4l-0.1,0.2
							c-0.2,0.4-0.1,0.9,0.3,1.2L91,209.1c0.2,0.1,0.4,0.1,0.7,0.1c0.2-0.1,0.4-0.2,0.5-0.4l0.1-0.2c0.1-0.2,0.1-0.4,0.1-0.7
							c-0.1-0.2-0.2-0.4-0.4-0.5l-23.8-13.6c-0.1-0.1-0.3-0.1-0.4-0.1C67.6,193.7,67.5,193.7,67.5,193.7z"/>
					</g>
				</g>
				<g id="XMLID_5207_">
					<g id="XMLID_5212_">
						<path id="XMLID_5705_" fill="#A2A2A2" d="M128.4,236.2l-0.5-0.4c-1-0.8-1.2-2.2-0.4-3.2l0,0c0.6-0.8,1.7-1.2,2.7-0.9l0.8,0.2
							l4.9,4.8c0.3,0.3,0.4,0.8,0.2,1.2l0,0c-0.2,0.4-0.7,0.6-1.1,0.4L128.4,236.2z"/>
					</g>
					<g id="XMLID_5228_">
						<path id="XMLID_5703_" fill="#DEDEDE" d="M130.1,233.2c-1-0.3-2.1,0-2.7,0.9c-0.1,0.1-0.2,0.2-0.2,0.4
							c0.1,0.5,0.4,0.9,0.8,1.2l0.5,0.4l6.4,2.1c0.2,0.1,0.5,0,0.7-0.1l-4.8-4.6L130.1,233.2z"/>
					</g>
					<g id="XMLID_5208_">
						<path id="XMLID_5699_" fill="#3F4040" d="M134.7,238.7l-6.4-2.1l-0.7-0.5c-1.2-1-1.4-2.7-0.5-3.9c0.7-1,2-1.5,3.2-1.1l0.9,0.3
							l5,4.8c0.5,0.5,0.6,1.2,0.3,1.8c-0.3,0.5-0.8,0.7-1.3,0.7C135,238.8,134.8,238.8,134.7,238.7z M130,232.1
							c-0.8-0.3-1.6,0-2.1,0.7c-0.6,0.8-0.4,1.9,0.3,2.6l0.5,0.4l6.4,2c0.2,0.1,0.4,0,0.6-0.2c0.1-0.2,0.1-0.4-0.1-0.6l-4.9-4.7
							L130,232.1z"/>
					</g>
				</g>
			</g>
			<g id="XMLID_5223_">
				<polygon id="XMLID_5428_" fill="#414242" points="127.1,234.5 58.6,195.4 59.1,194.6 127.2,233.4 				"/>
			</g>
		</g>
	</g>
	<g id="XMLID_5085_">
		<g id="XMLID_5084_">
			<g id="XMLID_5083_">
				<g id="XMLID_5074_">
					<path id="XMLID_5597_" fill="#F5E4CC" d="M197.5,181.7l10.4-17.8c0,0,0,0,0,0l-48.3-28c-1.8-0.9-4.6-0.2-7.4,2.5
						c-2.1,2.1-3.7,4.7-4.4,7.6c-0.9,3.8-0.2,6.5,1.5,7.7l0,0l0,0L197.5,181.7C197.5,181.7,197.5,181.7,197.5,181.7z"/>
					<path id="XMLID_6800_" fill="#F0B735" d="M151.6,143.2c-1.9,1.9-3.4,4.2-4.1,6.7c0.1,2,0.8,3.4,1.9,4.2l48.2,28c0,0,0,0,0,0
						l8.3-14.2L159,140.7C157.2,139.8,154.4,140.5,151.6,143.2z"/>
					<path id="XMLID_5600_" fill="#414242" d="M197.7,182.3l-0.5-0.2l-48.2-28c-2-1.4-2.6-4.5-1.7-8.2c0.7-3,2.3-5.7,4.5-7.9
						c2.8-2.7,5.8-3.7,8-2.6l48.5,28.1l0.1,0.4l-0.1,0.2L197.7,182.3z M158,136c-1.6,0-3.5,1-5.4,2.8c-2.1,2-3.6,4.6-4.3,7.4
						c-0.8,3.3-0.4,6,1.3,7.1l47.7,27.7l9.9-17l-47.9-27.7C159,136.1,158.5,136,158,136z"/>
				</g>
				<g id="XMLID_5076_">
					<path id="XMLID_5599_" fill="#414242" d="M153,156.4c-2-1.4-2.6-4.4-1.7-8.2c0.7-3,2.3-5.7,4.5-7.9c2.8-2.7,5.8-3.7,8-2.6
						l-0.4,0.9c-1.8-0.9-4.4,0.1-6.9,2.4c-2.1,2-3.6,4.6-4.3,7.4c-0.8,3.3-0.4,6,1.3,7.1L153,156.4z"/>
				</g>
				<g id="XMLID_5081_">
					<path id="XMLID_5598_" fill="#414242" d="M162.7,162c-2-1.4-2.6-4.4-1.7-8.2c0.7-3,2.3-5.7,4.5-7.9c2.8-2.7,5.8-3.7,8-2.6
						l-0.4,0.9c-1.8-0.9-4.4,0.1-6.9,2.4c-2.1,2-3.6,4.6-4.3,7.4c-0.8,3.3-0.4,6,1.3,7.1L162.7,162z"/>
				</g>
				<g id="XMLID_5047_">
					<path id="XMLID_5593_" fill="#DB9C17" d="M209.9,168.5c0,4.7-3.3,10.3-7.3,12.6c-4,2.3-7.3,0.4-7.3-4.2
						c0-4.7,3.3-10.3,7.3-12.6C206.6,161.9,209.9,163.8,209.9,168.5z"/>
					<path id="XMLID_5594_" fill="#414242" d="M199.3,182.6c-0.8,0-1.5-0.2-2.1-0.6c-1.5-0.9-2.4-2.7-2.4-5.2
						c0-4.8,3.4-10.7,7.5-13.1c2.1-1.2,4.1-1.4,5.7-0.5c1.5,0.9,2.4,2.7,2.4,5.2c0,4.8-3.4,10.7-7.5,13.1
						C201.6,182.3,200.4,182.6,199.3,182.6z M205.9,163.8c-0.9,0-1.9,0.3-3,0.9c-3.9,2.2-7.1,7.7-7.1,12.2c0,2.1,0.7,3.6,1.9,4.3
						c1.2,0.7,2.9,0.5,4.7-0.5c3.9-2.2,7.1-7.7,7.1-12.2c0-2.1-0.7-3.6-1.9-4.3C207,163.9,206.5,163.8,205.9,163.8z"/>
				</g>
			</g>
			<g id="XMLID_5069_">
				<g id="XMLID_5073_">
					<path id="XMLID_5589_" fill="#F4E3CC" d="M203.6,178.7l4.8-8.1c0,0,0,0,0,0L206,169c-0.8-0.4-2.1-0.1-3.4,1.2
						c-1,0.9-1.7,2.2-2,3.5c-0.4,1.7-0.1,3,0.7,3.5l0,0l0,0L203.6,178.7C203.6,178.7,203.6,178.7,203.6,178.7z"/>
					<path id="XMLID_5629_" fill="#EFB639" d="M203.9,175.9l-2.4-1.5c-0.3-0.1-0.6-0.2-1-0.1c-0.2,1.4,0.1,2.4,0.8,2.9l1.4,0.9
						L203.9,175.9C203.9,175.9,203.9,175.9,203.9,175.9z"/>
					<path id="XMLID_5590_" fill="#414242" d="M203.6,179.2l-0.2-0.1l-2.4-1.5c-1-0.7-1.3-2.2-0.9-4c0.4-1.4,1.1-2.7,2.1-3.7
						c1.4-1.3,2.8-1.8,3.9-1.2l2.6,1.7l0,0.6l-4.8,8.2L203.6,179.2z M205.2,169.4c-0.6,0-1.5,0.4-2.3,1.2c-0.9,0.9-1.6,2-1.9,3.2
						c-0.4,1.4-0.2,2.5,0.5,3l2,1.2l4.3-7.3l-2-1.2C205.6,169.4,205.4,169.4,205.2,169.4z"/>
				</g>
				<g id="XMLID_5072_">
					<path id="XMLID_5584_" fill="#DB9C17" d="M209.3,172.6c0,2.1-1.5,4.7-3.3,5.8c-1.8,1.1-3.3,0.2-3.3-1.9s1.5-4.7,3.3-5.8
						C207.8,169.7,209.3,170.5,209.3,172.6z"/>
					<path id="XMLID_5586_" fill="#414242" d="M204.5,179.4c-0.4,0-0.8-0.1-1.1-0.3c-0.8-0.5-1.2-1.4-1.2-2.6c0-2.3,1.6-5,3.6-6.2
						c1.1-0.6,2.1-0.7,2.9-0.2c0.8,0.5,1.2,1.4,1.2,2.6c0,2.3-1.6,5-3.6,6.2C205.6,179.2,205,179.4,204.5,179.4z M207.4,170.7
						c-0.4,0-0.8,0.1-1.2,0.4c-1.7,1-3.1,3.4-3.1,5.4c0,0.8,0.3,1.5,0.7,1.7c0.5,0.3,1.1,0.2,1.9-0.2c1.7-1,3.1-3.4,3.1-5.4
						c0-0.8-0.3-1.5-0.7-1.7C207.9,170.8,207.7,170.7,207.4,170.7z"/>
				</g>
			</g>
		</g>
		<g id="XMLID_5077_">
			<path id="XMLID_5585_" fill="#414242" d="M133.5,195.7l-2-3.4l25.3-14.7c3.1-1.8,6.9-1.8,10,0l11.6,6.8c5.5,3.2,11.7,4.9,18,4.9
				c6.3,0,12.6-1.7,18-4.9l0.7-0.4c0.5-0.3,0.5-0.8,0.5-1c0-0.2-0.1-0.7-0.6-1l-9.3-5.3c-0.9-0.5-1.3-1.7-0.7-2.7l0,0
				c0.5-0.9,1.7-1.3,2.7-0.7l9.1,5.2c1.5,0.9,2.6,2.5,2.7,4.3c0.1,1.9-0.9,3.7-2.5,4.6l-0.7,0.4c-6,3.5-13,5.4-20,5.4
				c-7,0-13.9-1.9-20-5.4l-11.6-6.8c-1.9-1.1-4.2-1.1-6,0L133.5,195.7z"/>
		</g>
		<g id="XMLID_5075_">
			<g id="XMLID_5078_">
				<g id="XMLID_5080_">
					<path id="XMLID_5580_" fill="#A2A2A2" d="M106.3,204.3l4.9,8.5c0,0,0,0,0,0l28.6-16.9c0.8-0.6,1.2-2,0.6-3.9
						c-0.3-1.2-1-2.3-1.8-3.2c-1.4-1.5-2.8-1.8-3.7-1.4l0,0l0,0L106.3,204.3C106.3,204.3,106.3,204.3,106.3,204.3z"/>
					<path id="XMLID_6819_" fill="#DFDFDF" d="M140.1,192.2C140.1,192.2,140.1,192.2,140.1,192.2c-0.3-1.2-1-2.3-1.8-3.2
						c-1.4-1.5-2.8-1.8-3.7-1.4l-27.1,16l3.5,6.2c0,0,0,0,0,0l28.6-16.9C139.8,192.7,140,192.5,140.1,192.2z"/>
					<path id="XMLID_5581_" fill="#414242" d="M111.2,213.4l-0.4-0.1l-0.1-0.2l-5-8.8l0.2-0.4l0.1-0.1l28.5-16.9
						c1.3-0.6,2.8,0,4.3,1.5c0.9,0.9,1.6,2.1,2,3.4c0.6,2,0.3,3.7-0.8,4.5L111.2,213.4z M106.9,204.5l4.4,7.7l28.1-16.7
						c0.7-0.5,0.9-1.8,0.4-3.4c-0.3-1.1-0.9-2.1-1.7-3c-1.1-1.2-2.4-1.7-3.2-1.3L106.9,204.5z"/>
				</g>
				<g id="XMLID_5079_">
					<path id="XMLID_5575_" fill="#DFDFDF" d="M108.8,212.6c-1.9-1.1-3.5-3.8-3.5-6c0-2.2,1.6-3.1,3.5-2c1.9,1.1,3.5,3.8,3.5,6
						C112.2,212.8,110.7,213.7,108.8,212.6z"/>
					<path id="XMLID_5577_" fill="#414242" d="M110.3,213.6c-0.6,0-1.2-0.2-1.8-0.5l0,0c-2.1-1.2-3.7-4-3.7-6.5
						c0-1.3,0.4-2.2,1.3-2.7c0.8-0.5,1.9-0.4,3,0.2c2.1,1.2,3.7,4,3.7,6.5c0,1.3-0.4,2.2-1.3,2.7
						C111.1,213.5,110.7,213.6,110.3,213.6z M109,212.2c0.8,0.4,1.5,0.5,2,0.2c0.5-0.3,0.8-0.9,0.8-1.8c0-2.1-1.5-4.6-3.2-5.6
						c-0.8-0.4-1.5-0.5-2-0.2c-0.5,0.3-0.8,0.9-0.8,1.8C105.8,208.6,107.2,211.1,109,212.2L109,212.2z"/>
				</g>
			</g>
			<g id="XMLID_5082_">
				
					<rect id="XMLID_5576_" x="125.8" y="184.5" transform="matrix(0.5078 0.8615 -0.8615 0.5078 235.274 -9.8814)" fill="#414242" width="1" height="33"/>
			</g>
		</g>
	</g>
	<g id="XMLID_5023_">
		<g id="XMLID_5024_">
			<path id="XMLID_5566_" fill="#DFDFDF" d="M268.2,35.5h-83.5v72.3l0,0c0,6.2,4.1,12.3,12.2,17.1c16.3,9.4,42.8,9.4,59.1,0
				c8.2-4.7,12.2-10.9,12.2-17.1l0,0V35.5z"/>
			<path id="XMLID_5572_" fill="#414242" d="M226.5,132.4c-10.8,0-21.6-2.4-29.8-7.1c-8-4.6-12.5-10.9-12.5-17.5V35h84.5v72.8
				c0,6.6-4.4,12.8-12.5,17.5C248.1,130,237.3,132.4,226.5,132.4z M185.2,36v71.8c0,6.3,4.3,12.2,12,16.6c16.1,9.3,42.4,9.3,58.6,0
				c7.7-4.5,12-10.4,12-16.6V36H185.2z"/>
		</g>
		<g id="XMLID_5025_">
			<rect id="XMLID_5571_" x="189.6" y="47.4" fill="#414242" width="1" height="72.2"/>
		</g>
		<g id="XMLID_5026_">
			<rect id="XMLID_5570_" x="259.2" y="50.2" fill="#414242" width="1" height="72.3"/>
		</g>
		<g id="XMLID_5032_">
			<rect id="XMLID_5569_" x="255" y="52.8" fill="#414242" width="1" height="72.3"/>
		</g>
		<g id="XMLID_5035_">
			<rect id="XMLID_5568_" x="245.3" y="57.1" fill="#414242" width="1" height="72.3"/>
		</g>
		<g id="XMLID_5037_">
			<g id="XMLID_5059_">
				<path id="XMLID_5567_" fill="#414242" d="M205.8,103c-5.2,0-10.3-1.5-14.9-4.4c-7.8-5.1-13.2-17.1-12.5-26.4
					c0.6-7.6,2.4-15.8,5.5-24.2c0.1-0.2,0.2-0.2,0.4-0.2l0,0c0.6,0.2,0.9,0.9,0.7,1.5c-2.9,8.3-4.7,16.2-5.2,23.7
					c-0.6,9.5,3.6,18.7,11.5,24c7.7,5.1,17.2,5.9,25.5,2c20.8-9.8,35.1-36.7,35.2-37l1.3,0.7c-0.1,0.3-14.7,27.7-35.9,37.6
					C213.7,102.1,209.7,103,205.8,103z"/>
			</g>
			<g id="XMLID_5036_">
				<path id="XMLID_5562_" fill="#DFDFDF" d="M254.9,61.5c0,1.4-1,3.1-2.2,3.7c-1.2,0.7-2.2,0.1-2.2-1.2s1-3.1,2.2-3.7
					C253.9,59.6,254.9,60.1,254.9,61.5z"/>
				<path id="XMLID_5563_" fill="#414242" d="M251.7,66.1c-0.3,0-0.6-0.1-0.8-0.2c-0.6-0.3-0.9-1-0.9-1.8c0-1.6,1.1-3.4,2.4-4.2
					c0.7-0.4,1.5-0.5,2-0.2c0.6,0.3,0.9,1,0.9,1.8c0,1.6-1.1,3.4-2.4,4.2C252.5,65.9,252.1,66.1,251.7,66.1z M253.7,60.5
					c-0.2,0-0.5,0.1-0.7,0.2c-1,0.6-1.9,2.1-1.9,3.3c0,0.5,0.1,0.8,0.4,1c0.2,0.1,0.6,0.1,1-0.2c1-0.6,1.9-2.1,1.9-3.3
					c0-0.5-0.1-0.8-0.4-1C253.9,60.5,253.8,60.5,253.7,60.5z"/>
			</g>
		</g>
		<g id="XMLID_5066_">
			<path id="XMLID_5558_" fill="#F0B735" d="M200.3,54.3c0,0,0,4.6,4.8,6.5c4.8,1.9,3.6,19.9,2.5,23.5c-1.3,4-0.5,7.1,2.3,7.1
				c2.9,0,3-3.8,1.7-7.1c-1.7-4.1-0.3-19.9,1.8-21.9c2.1-2,7.1-0.1,5.2,5.6s-0.4,7.1,1.5,7.1c2.8,0,2.9-4.1,1.4-7.5
				c-1.5-3.4,3.7-7.5,7.2-3.1c3.5,4.4,5-3.3,11-6.1c3.7-1.7-31.7-8.2-31.7-8.2L200.3,54.3z"/>
			<g id="XMLID_6795_">
				<path id="XMLID_6805_" fill="#F5E4CC" d="M209.7,84c1.1-3.6,2.3-21.7-2.5-23.5c-4.8-1.9-4.8-6.5-4.8-6.5l6.8-3.6
					c-0.7-0.1-1.1-0.2-1.1-0.2l-7.8,4.1c0,0,0,4.6,4.8,6.5c4.8,1.9,3.6,19.9,2.5,23.5c-1.3,4-0.5,7.1,2.3,7.1c0.6,0,1-0.2,1.4-0.4
					C209.1,90.5,208.6,87.6,209.7,84z"/>
				<path id="XMLID_6806_" fill="#F5E4CC" d="M220.7,67.7c1.7-5.3-2.4-7.3-4.7-6c2,0.4,3.8,2.5,2.5,6.3c-1.9,5.7-0.4,7.1,1.5,7.1
					c0.5,0,1-0.2,1.3-0.4C219.9,74.3,219.1,72.5,220.7,67.7z"/>
				<path id="XMLID_6807_" fill="#F5E4CC" d="M230.8,64.2c-1.6-2-3.6-2.2-5.1-1.5c1,0.1,2,0.7,2.9,1.9c1.3,1.6,2.3,1.6,3.4,0.8
					C231.6,65.1,231.2,64.7,230.8,64.2z"/>
			</g>
			<path id="XMLID_5559_" fill="#414242" d="M210,91.9c-1.1,0-2-0.4-2.6-1.2c-1-1.4-1.1-3.7-0.2-6.5c1.1-3.5,2.1-21.3-2.2-22.9
				c-5.1-1.9-5.2-6.9-5.2-6.9l0-0.3l8.2-4.4l0.2,0c12,2.2,32.1,6.2,32.4,8.3c0,0.2,0,0.6-0.5,0.8c-2.4,1.1-4.1,3.1-5.5,4.7
				c-1.4,1.6-2.4,2.8-3.7,2.8c0,0,0,0,0,0c-0.8,0-1.6-0.5-2.4-1.5c-1.6-2.1-3.6-2-4.9-1.2c-1.2,0.7-2.1,2.3-1.5,3.8
				c1,2.2,1.5,5.2,0.4,7c-0.5,0.8-1.3,1.2-2.2,1.2c-1,0-1.8-0.3-2.3-1c-0.9-1.2-0.8-3.4,0.3-6.7c0.8-2.4,0.4-4.3-1.1-5.3
				c-1.1-0.7-2.5-0.6-3.3,0.2c-1.8,1.7-3.4,17.1-1.7,21.4c1.1,2.6,1.1,5.2,0.2,6.6C211.8,91.5,211,91.9,210,91.9
				C210,91.9,210,91.9,210,91.9z M200.8,54.6c0.1,1,0.7,4.3,4.5,5.7c5.3,2,3.8,20.8,2.8,24.1c-0.8,2.4-0.7,4.5,0,5.6
				c0.4,0.5,1,0.8,1.8,0.8c0,0,0,0,0,0c0.7,0,1.2-0.2,1.5-0.8c0.8-1.1,0.6-3.4-0.3-5.7c-1.8-4.3-0.4-20.3,1.9-22.5
				c1.2-1.1,3.1-1.2,4.5-0.3c1.9,1.2,2.4,3.6,1.5,6.4c-1.2,3.7-0.9,5.2-0.4,5.9c0.3,0.4,0.8,0.6,1.5,0.6c0.6,0,1.1-0.2,1.4-0.7
				c0.8-1.2,0.6-3.8-0.4-6.1c-0.8-1.8,0-3.9,1.8-5c1.6-1,4.1-1.1,6.1,1.4c0.6,0.8,1.1,1.1,1.6,1.1c0.9,0,1.9-1.1,3-2.5
				c1.4-1.6,3.1-3.6,5.6-4.8c-2.1-1.4-17.3-4.8-31.2-7.3L200.8,54.6z"/>
		</g>
		<g id="XMLID_3013_">
			<g id="XMLID_5031_">
				<path id="XMLID_5554_" fill="#F1F1F1" d="M256,18.5c16.3,9.4,16.3,24.7,0,34.1c-16.3,9.4-42.8,9.4-59.1,0
					c-16.3-9.4-16.3-24.7,0-34.1C213.3,9.1,239.7,9.1,256,18.5z"/>
				<path id="XMLID_5555_" fill="#414242" d="M226.5,60.4c-10.8,0-21.7-2.4-29.9-7.1c-8.1-4.7-12.6-11-12.6-17.7
					c0-6.7,4.5-13,12.6-17.7c16.5-9.5,43.3-9.5,59.8,0c8.1,4.7,12.6,11,12.6,17.7c0,6.7-4.5,13-12.6,17.7
					C248.1,58,237.3,60.4,226.5,60.4z M226.5,12.2c-10.6,0-21.1,2.3-29.2,7c-7.7,4.4-11.9,10.2-11.9,16.4c0,6.2,4.2,12,11.9,16.4
					c16.1,9.3,42.2,9.3,58.3,0c7.7-4.4,11.9-10.2,11.9-16.4c0-6.2-4.2-12-11.9-16.4C247.6,14.5,237,12.2,226.5,12.2z"/>
			</g>
			<g id="XMLID_5030_">
				<path id="XMLID_5550_" fill="#A3A3A3" d="M251.1,20.9c14,8.1,14,21.3,0,29.4c-14,8.1-36.8,8.1-50.8,0c-14-8.1-14-21.3,0-29.4
					S237.1,12.7,251.1,20.9z"/>
				<path id="XMLID_6814_" fill="#DEDEDE" d="M208,29.1c-9.3,5.3-12.4,12.9-9.5,19.7c0.8,0.6,1.6,1.1,2.5,1.6
					c14,8.1,36.8,8.1,50.8,0c9.3-5.3,12.4-12.9,9.5-19.7c-0.8-0.6-1.6-1.1-2.5-1.6C244.8,21,222,21,208,29.1z"/>
				<path id="XMLID_5551_" fill="#414242" d="M226.5,56.8c-9.3,0-18.6-2-25.7-6.1c-6.9-4-10.8-9.4-10.8-15.1
					c0-5.7,3.8-11.1,10.8-15.1c14.2-8.2,37.2-8.2,51.3,0l0,0c6.9,4,10.8,9.4,10.8,15.1c0,5.7-3.8,11.1-10.8,15.1
					C245.1,54.7,235.8,56.8,226.5,56.8z M226.5,15.3c-9.1,0-18.2,2-25.2,6c-6.6,3.8-10.3,8.9-10.3,14.3c0,5.4,3.7,10.4,10.3,14.3
					c13.9,8,36.5,8,50.4,0c6.6-3.8,10.3-8.9,10.3-14.3c0-5.4-3.7-10.4-10.3-14.3C244.7,17.3,235.6,15.3,226.5,15.3z"/>
			</g>
			<g id="XMLID_5034_">
				<path id="XMLID_5546_" fill="#F6E5CC" d="M251.9,36.9c-14-8.1-36.8-8.1-50.8,0c-3.4,2-6,4.2-7.7,6.7c1.8,2.4,4.3,4.7,7.7,6.7
					c14,8.1,36.8,8.1,50.8,0c3.4-2,6-4.2,7.7-6.7C257.9,41.1,255.3,38.9,251.9,36.9z"/>
				<path id="XMLID_6799_" fill="#F1B831" d="M257.6,42.3c-14-8.1-36.8-8.1-50.8,0c-3.4,2-6,4.2-7.7,6.6c0.7,0.4,1.3,0.9,2.1,1.3
					c14,8.1,36.8,8.1,50.8,0c3.4-2,6-4.2,7.7-6.6C259,43.1,258.3,42.7,257.6,42.3z"/>
				<path id="XMLID_5547_" fill="#414242" d="M226.5,56.8c-9.3,0-18.6-2-25.7-6.1c-3.4-2-6-4.2-7.9-6.8l-0.2-0.3l0.2-0.3
					c1.9-2.6,4.5-4.8,7.9-6.8c14.2-8.2,37.2-8.2,51.3,0l0,0c3.4,2,6,4.2,7.9,6.8l0.2,0.3l-0.2,0.3c-1.9,2.6-4.5,4.8-7.9,6.8
					C245.1,54.7,235.8,56.8,226.5,56.8z M193.9,43.5c1.8,2.3,4.2,4.4,7.4,6.2c13.9,8,36.5,8,50.4,0c3.1-1.8,5.6-3.9,7.4-6.2
					c-1.8-2.3-4.2-4.4-7.4-6.2l0,0c-13.9-8-36.5-8-50.4,0C198.2,39.1,195.7,41.2,193.9,43.5z"/>
			</g>
			<g id="XMLID_5033_">
				<path id="XMLID_5542_" fill="#A2A2A2" d="M201.1,25.3c14-8.1,36.8-8.1,50.8,0c6,3.4,9.4,7.8,10.3,12.3c0,0,0.1,0,0.1,0
					c1-6-2.5-12.1-10.4-16.7c-14-8.1-36.8-8.1-50.8,0c-7.9,4.6-11.4,10.7-10.4,16.7c0,0,0.1,0,0.1,0
					C191.7,33.1,195.1,28.7,201.1,25.3z"/>
				<path id="XMLID_5543_" fill="#414242" d="M261.8,38.1l-0.1-0.4c-0.9-4.5-4.4-8.7-10-11.9c-13.9-8-36.5-8-50.4,0l-0.2-0.4
					l0.2,0.4c-5.7,3.3-9.1,7.4-10,11.9l-0.1,0.4l-0.4,0l-0.4,0l-0.1-0.4c-1.1-6.4,2.8-12.7,10.6-17.2c14.2-8.2,37.2-8.2,51.3,0
					c7.8,4.5,11.7,10.8,10.6,17.2l-0.1,0.4L261.8,38.1z M226.5,15.3c-9.1,0-18.2,2-25.2,6c-6.4,3.7-10,8.6-10.3,13.7
					c1.6-3.8,4.9-7.3,9.8-10.1l0,0c14.2-8.2,37.2-8.2,51.3,0c4.9,2.8,8.2,6.3,9.8,10.1c-0.2-5.1-3.9-10-10.3-13.7
					C244.7,17.3,235.6,15.3,226.5,15.3z"/>
			</g>
		</g>
	</g>
	<g id="XMLID_5042_">
		<g id="XMLID_5064_">
			<path id="XMLID_5534_" fill="#DFDFDF" d="M299.5,109.9H237V164l0,0c0,4.6,3.1,9.2,9.2,12.8c12.2,7,32,7,44.2,0
				c6.1-3.5,9.2-8.1,9.2-12.8l0,0V109.9z"/>
			<path id="XMLID_5539_" fill="#414242" d="M268.2,182.6c-8.1,0-16.2-1.8-22.3-5.3c-6.1-3.5-9.4-8.2-9.4-13.2v-54.6H300V164
				c0,5-3.3,9.7-9.4,13.2C284.4,180.8,276.3,182.6,268.2,182.6z M237.5,110.4V164c0,4.6,3.2,9,8.9,12.3c12.1,7,31.7,7,43.7,0
				c5.7-3.3,8.9-7.7,8.9-12.3v-53.6H237.5z"/>
		</g>
		<g id="XMLID_5046_">
			<rect id="XMLID_5538_" x="240.5" y="118.8" fill="#414242" width="1" height="54"/>
		</g>
		<g id="XMLID_5045_">
			<rect id="XMLID_5537_" x="292.6" y="120.9" fill="#414242" width="1" height="54.1"/>
		</g>
		<g id="XMLID_5044_">
			<rect id="XMLID_5536_" x="289.5" y="122.9" fill="#414242" width="1" height="54.1"/>
		</g>
		<g id="XMLID_5043_">
			<rect id="XMLID_5535_" x="282.2" y="126.1" fill="#414242" width="1" height="54.1"/>
		</g>
		<g id="XMLID_5038_">
			<path id="XMLID_5530_" fill="#239BC6" d="M247.7,121.8c0.9,2.3,2.2,4.3,4,6c1.3,1.2,2.7,2.3,4.1,3.1c1.9,1.1,3.8,2.9,3,5.2
				c-1.4,4.3,4.2,4.8,3.1,0c-0.9-4.3,0.9-5.7,3.5-5.5c2.6,0.2,3.5,4.8,2.3,9.9s-0.2,7.6,2.5,7.5c2.7-0.1,3-5,1.8-8.2
				c-1.2-3.2-0.5-10.2,3.8-9.1c2.3,0.6,5.9,3.5,8.2-1.7c1.7-3.9,5.3-6.3,5.3-6.3l-41.9-2L247.7,121.8z"/>
			<g id="XMLID_6326_">
				<path id="XMLID_6801_" fill="#82CDEF" d="M260.9,135.2c0.8-2.3-1.1-4.1-3-5.2c-1.4-0.8-2.8-1.9-4.1-3.1c-1.8-1.6-3.1-3.7-4-6
					l0,0l-2.5-0.1l0.4,1.1c0.9,2.3,2.2,4.3,4,6c1.3,1.2,2.7,2.3,4.1,3.1c1.9,1.1,3.8,2.9,3,5.2c-1.1,3.4,2.1,4.4,3,2.3
					C260.9,138.1,260.3,137,260.9,135.2z"/>
				<path id="XMLID_6802_" fill="#82CDEF" d="M277.8,129.8c-1.3-0.4-2.2,0-2.9,0.8c0.3,0,0.5,0,0.8,0.1c1.9,0.5,4.6,2.5,6.8,0.4
					C280.8,131.3,279.1,130.2,277.8,129.8z"/>
				<path id="XMLID_6803_" fill="#82CDEF" d="M269.7,139.6c1.3-5.1,0.3-9.7-2.3-9.9c-1.2-0.1-2.3,0.2-3,0.9c0.3,0,0.6,0,0.9,0
					c2.6,0.2,3.5,4.8,2.3,9.9c-1.3,5.1-0.2,7.6,2.5,7.5c0.7,0,1.2-0.4,1.6-1C269.4,146.9,268.5,144.5,269.7,139.6z"/>
			</g>
			<path id="XMLID_5531_" fill="#414242" d="M270,148.5c-1,0-1.9-0.4-2.5-1.1c-1.1-1.3-1.2-3.7-0.3-7c0.9-3.5,0.7-6.9-0.5-8.5
				c-0.4-0.5-0.8-0.8-1.4-0.8c-0.8-0.1-1.9,0-2.6,0.8c-0.7,0.8-0.8,2.2-0.4,4.1c0.5,2.4-0.5,3.4-1,3.7c-0.7,0.5-1.7,0.4-2.4-0.1
				c-0.9-0.7-1.2-2.1-0.7-3.6c0.5-1.6-0.4-3.2-2.8-4.6c-1.4-0.8-2.9-1.9-4.2-3.1c-1.8-1.7-3.2-3.8-4.1-6.1l-0.7-1.8l44.1,2.1
				l-1.3,0.8c0,0-3.5,2.3-5.1,6.1c-2,4.7-5.3,3.4-7.5,2.5c-0.5-0.2-0.9-0.4-1.3-0.5c-1-0.3-1.7-0.1-2.3,0.6
				c-1.5,1.6-1.7,5.6-0.8,7.8c0.9,2.3,1,5.9-0.2,7.7c-0.5,0.8-1.2,1.2-2,1.2C270.1,148.5,270,148.5,270,148.5z M264.9,130.1
				c0.2,0,0.3,0,0.5,0c0.8,0.1,1.5,0.5,2.1,1.2c1.3,1.8,1.6,5.5,0.6,9.3c-0.9,3.8-0.4,5.4,0.2,6.2c0.4,0.5,1,0.8,1.8,0.7
				c0.5,0,0.9-0.3,1.2-0.8c0.9-1.4,1-4.5,0.1-6.8c-0.8-2.3-0.9-6.8,1-8.8c0.9-0.9,2-1.2,3.3-0.9c0.4,0.1,0.9,0.3,1.4,0.5
				c2.2,0.9,4.5,1.8,6.2-2c1.2-2.7,3.1-4.6,4.4-5.6l-39.8-1.9l0.1,0.4c0.9,2.2,2.2,4.2,3.9,5.8c1.3,1.2,2.6,2.2,4,3
				c2.8,1.7,3.9,3.7,3.2,5.8c-0.4,1.1-0.2,2,0.3,2.5c0.4,0.3,0.9,0.3,1.3,0.1c0.6-0.4,0.8-1.4,0.6-2.6c-0.5-2.2-0.3-3.9,0.6-5
				C262.7,130.5,263.7,130.1,264.9,130.1z"/>
		</g>
		<g id="XMLID_5039_">
			<g id="XMLID_5063_">
				<path id="XMLID_5526_" fill="#FFFFFF" d="M290.4,97.2c12.2,7,12.2,18.5,0,25.5c-12.2,7-32,7-44.2,0c-12.2-7-12.2-18.5,0-25.5
					S278.1,90.1,290.4,97.2z"/>
				<path id="XMLID_5527_" fill="#414242" d="M268.2,128.7c-8.1,0-16.3-1.8-22.5-5.4c-6.1-3.5-9.5-8.3-9.5-13.4
					c0-5.1,3.4-9.9,9.5-13.4c12.4-7.2,32.6-7.2,44.9,0l0,0c6.1,3.5,9.5,8.3,9.5,13.4c0,5.1-3.4,9.9-9.5,13.4
					C284.5,126.9,276.4,128.7,268.2,128.7z M268.2,92.6c-7.9,0-15.7,1.7-21.7,5.2c-5.7,3.3-8.8,7.6-8.8,12.1c0,4.5,3.1,8.9,8.8,12.1
					c12,6.9,31.5,6.9,43.5,0c5.7-3.3,8.8-7.6,8.8-12.1c0-4.5-3.1-8.9-8.8-12.1C284,94.4,276.1,92.6,268.2,92.6z"/>
			</g>
			<g id="XMLID_5062_">
				<path id="XMLID_5522_" fill="#A2A2A2" d="M286.6,99.3c10.2,5.9,10.2,15.4,0,21.2c-10.2,5.9-26.6,5.9-36.8,0
					c-10.2-5.9-10.2-15.4,0-21.2C260,93.5,276.5,93.5,286.6,99.3z"/>
				<path id="XMLID_6815_" fill="#DFDFDF" d="M255.6,107.4c-5.9,3.4-8.3,8-7.4,12.4c0.5,0.4,1.1,0.7,1.7,1.1
					c10.2,5.9,26.6,5.9,36.8,0c5.9-3.4,8.3-8,7.4-12.4c-0.5-0.4-1.1-0.7-1.7-1.1C282.2,101.5,265.7,101.5,255.6,107.4z"/>
				<path id="XMLID_5523_" fill="#414242" d="M268.2,125.4c-6.7,0-13.5-1.5-18.6-4.4c-5.1-2.9-7.9-6.8-7.9-11c0-4.2,2.8-8.1,7.9-11
					c10.3-5.9,27-5.9,37.3,0c5.1,2.9,7.9,6.8,7.9,11c0,4.2-2.8,8.1-7.9,11C281.7,123.9,275,125.4,268.2,125.4z M268.2,95.4
					c-6.6,0-13.1,1.4-18.1,4.3c-4.8,2.7-7.4,6.4-7.4,10.2c0,3.8,2.6,7.4,7.4,10.2c10,5.8,26.3,5.8,36.3,0c4.8-2.7,7.4-6.4,7.4-10.2
					c0-3.8-2.6-7.4-7.4-10.2C281.4,96.9,274.8,95.4,268.2,95.4z"/>
			</g>
			<g id="XMLID_5061_">
				<path id="XMLID_5518_" fill="#82CEF0" d="M286.6,110.9c-10.2-5.9-26.6-5.9-36.8,0c-2.5,1.4-4.3,3.1-5.6,4.8
					c1.3,1.8,3.1,3.4,5.6,4.8c10.2,5.9,26.6,5.9,36.8,0c2.5-1.4,4.3-3.1,5.6-4.8C291,114,289.1,112.3,286.6,110.9z"/>
				<path id="XMLID_6798_" fill="#239BC6" d="M252.7,114.4c-2.3,1.3-4.1,2.9-5.4,4.5c0.8,0.6,1.6,1.2,2.5,1.7
					c10.2,5.9,26.6,5.9,36.8,0c2.3-1.3,4.1-2.9,5.4-4.5c-0.8-0.6-1.6-1.2-2.5-1.7C279.3,108.6,262.8,108.6,252.7,114.4z"/>
				<path id="XMLID_5519_" fill="#414242" d="M268.2,125.4c-6.7,0-13.5-1.5-18.6-4.4c-2.5-1.4-4.4-3.1-5.8-5l-0.2-0.3l0.2-0.3
					c1.4-1.9,3.3-3.5,5.8-5c10.3-5.9,27-5.9,37.3,0c2.5,1.4,4.4,3.1,5.8,5l0.2,0.3l-0.2,0.3c-1.4,1.9-3.3,3.5-5.8,5
					C281.7,123.9,275,125.4,268.2,125.4z M244.9,115.7c1.3,1.6,3,3.1,5.2,4.4c10,5.8,26.3,5.8,36.3,0c2.2-1.3,4-2.8,5.2-4.4
					c-1.3-1.6-3-3.1-5.2-4.4c-10-5.8-26.3-5.8-36.3,0C247.9,112.6,246.1,114.1,244.9,115.7z"/>
			</g>
			<g id="XMLID_5060_">
				<path id="XMLID_5514_" fill="#A2A2A2" d="M249.9,102.5c10.2-5.9,26.6-5.9,36.8,0c4.3,2.5,6.8,5.6,7.4,8.9c0,0,0,0,0.1,0
					c0.7-4.3-1.8-8.8-7.5-12.1c-10.2-5.9-26.6-5.9-36.8,0c-5.7,3.3-8.2,7.8-7.5,12.1c0,0,0,0,0.1,0
					C243.1,108.2,245.6,105,249.9,102.5z"/>
				<path id="XMLID_5515_" fill="#414242" d="M293.7,111.9l-0.1-0.4c-0.7-3.2-3.1-6.2-7.2-8.5c-10-5.8-26.3-5.8-36.3,0
					c-4.1,2.3-6.5,5.3-7.2,8.5l-0.1,0.4l-0.4,0l-0.4,0l-0.1-0.4c-0.8-4.7,2-9.3,7.7-12.6c10.3-5.9,27-5.9,37.3,0
					c5.7,3.3,8.5,7.9,7.7,12.6l-0.1,0.4L293.7,111.9z M268.2,95.4c-6.6,0-13.1,1.4-18.1,4.3c-4.2,2.5-6.8,5.6-7.3,9
					c1.2-2.5,3.5-4.8,6.8-6.6l0,0c10.3-5.9,27-5.9,37.3,0c3.2,1.9,5.5,4.1,6.8,6.6c-0.5-3.4-3-6.5-7.3-9
					C281.4,96.9,274.8,95.4,268.2,95.4z"/>
			</g>
		</g>
	</g>
	<g id="XMLID_5163_">
		<g id="XMLID_5162_">
			<g id="XMLID_5161_">
				<path id="XMLID_5510_" fill="#DEDEDE" d="M134.3,172.8v-7.1c0-0.1,0-0.1-0.1-0.1l-13.1-0.2c0,0,0,0,0,0c-4.2-0.9-8.6-1-12.5-0.2
					c0,0,0,0,0,0l-6.6-0.1h-6.2c-0.1,0-0.1,0-0.1,0.1v7.2c-0.1,0.8,0.5,1.7,1.6,2.3l14.2,8.2c2,1.1,4.9,1.3,6.6,0.3l15.1-8.7
					C133.9,174,134.3,173.4,134.3,172.8z"/>
				<path id="XMLID_6818_" fill="#EFEFEF" d="M116.7,176l-7.7-11.1c-0.1,0-0.3,0-0.4,0.1c0,0,0,0,0,0l-6.6-0.1h-6.2
					c-0.1,0-0.1,0-0.1,0.1v7.2c-0.1,0.8,0.5,1.7,1.6,2.3l14.2,8.2c1.5,0.9,3.7,1.1,5.4,0.7c0-0.1,0-0.1,0-0.2v-7
					C116.8,176.1,116.8,176,116.7,176z"/>
				<path id="XMLID_5511_" fill="#414242" d="M115.2,184.3c-1.4,0-2.8-0.3-4-1L97,175.2c-1.3-0.7-2-1.8-1.8-2.8l0-7.1
					c0-0.3,0.3-0.6,0.6-0.6h6.2l6.6,0.1c3.8-0.8,8.3-0.8,12.6,0.2l13,0.2c0.3,0,0.6,0.3,0.6,0.6v7.1c0,0.8-0.5,1.6-1.4,2.1
					l-15.1,8.7C117.4,184.1,116.3,184.3,115.2,184.3z M96.2,165.6v6.8c-0.1,0.7,0.4,1.4,1.4,1.9l14.2,8.2c1.8,1,4.6,1.2,6.1,0.3
					l15.1-8.7c0.4-0.2,0.9-0.6,0.9-1.2v-6.7l-12.8-0.2c-4.1-0.9-8.5-1-12.3-0.2l-0.1,0l-6.6-0.1H96.2z"/>
			</g>
			<g id="XMLID_5153_">
				<g id="XMLID_5142_">
					<path id="XMLID_5506_" fill="#F0B735" d="M133.2,167.2l-15.1,8.7c-1.7,1-4.6,0.9-6.6-0.3l-14.2-8.2c-2-1.1-2.2-2.8-0.5-3.8
						l6.5-3.7c6.5-3.7,17.7-3.3,25.2,1l4.2,2.4C134.6,164.5,134.9,166.2,133.2,167.2z"/>
					<path id="XMLID_5507_" fill="#414242" d="M115.2,177.1c-1.4,0-2.8-0.3-4-1L97,167.9c-1.2-0.7-1.9-1.6-1.9-2.6
						c0-0.8,0.5-1.6,1.4-2.1l6.5-3.7c6.6-3.8,18.1-3.3,25.7,1l4.2,2.4c1.2,0.7,1.9,1.6,1.9,2.6c0,0.8-0.5,1.6-1.4,2.1l-15.1,8.7
						C117.4,176.8,116.3,177.1,115.2,177.1z M114.2,157.9c-4,0-7.8,0.8-10.7,2.5l-6.5,3.7c-0.4,0.2-0.9,0.6-0.9,1.2
						c0,0.6,0.5,1.2,1.4,1.7l14.2,8.2c1.8,1,4.6,1.2,6.1,0.3l15.1-8.7c0.4-0.2,0.9-0.6,0.9-1.2c0-0.6-0.5-1.2-1.4-1.7l-4.2-2.4
						C124.2,159.1,119.1,157.9,114.2,157.9z"/>
				</g>
				<g id="XMLID_5152_">
					<path id="XMLID_5502_" fill="#EFB639" d="M122,161.8c3.8,2.2,3.8,5.8,0,8c-3.8,2.2-10.1,2.2-13.9,0c-3.8-2.2-3.8-5.8,0-8
						C111.9,159.6,118.1,159.6,122,161.8z"/>
					<path id="XMLID_5503_" fill="#414242" d="M115,172c-2.6,0-5.2-0.6-7.2-1.7c-2-1.2-3.1-2.7-3.1-4.4c0-1.7,1.1-3.3,3.1-4.4
						c4-2.3,10.4-2.3,14.4,0l0,0c2,1.2,3.1,2.7,3.1,4.4c0,1.7-1.1,3.3-3.1,4.4C120.2,171.5,117.6,172,115,172z M115,160.7
						c-2.4,0-4.9,0.5-6.7,1.6c-1.7,1-2.6,2.3-2.6,3.6c0,1.3,0.9,2.6,2.6,3.6c3.7,2.1,9.7,2.1,13.4,0c1.7-1,2.6-2.3,2.6-3.6
						c0-1.3-0.9-2.6-2.6-3.6l0,0C119.9,161.2,117.4,160.7,115,160.7z"/>
				</g>
				<g id="XMLID_5168_">
					<path id="XMLID_5498_" fill="#F4E3CC" d="M110.8,162.9c2.7-0.8,5.6-0.8,8.3,0c3,0.9,4.8,2.3,5.4,3.9c0,0.1,0.1,0.1,0.1,0
						c0.7-2.3-1.2-4.9-5.6-6.1c-2.7-0.8-5.6-0.8-8.2,0c-4.4,1.3-6.3,3.8-5.6,6.1c0,0.1,0.1,0.1,0.1,0
						C106,165.2,107.8,163.8,110.8,162.9z"/>
					<path id="XMLID_5499_" fill="#414242" d="M124.6,167.3c-0.2,0-0.4-0.1-0.5-0.3c-0.6-1.5-2.5-2.9-5.1-3.6c-2.6-0.8-5.4-0.7-8,0
						c-2.6,0.8-4.5,2.1-5.1,3.6l-0.1,0.3l-0.4,0c-0.2,0-0.4-0.2-0.5-0.4c-0.3-1-0.2-2.1,0.4-3.1c0.9-1.6,2.9-2.9,5.6-3.7
						c2.8-0.8,5.7-0.8,8.5,0c2.7,0.8,4.7,2.1,5.6,3.7c0.5,1,0.7,2,0.4,3.1l-0.1,0.3L124.6,167.3
						C124.7,167.3,124.7,167.3,124.6,167.3z M115,161.8c1.4,0,2.9,0.2,4.3,0.6c2.3,0.7,4,1.7,5,2.9c-0.1-0.3-0.2-0.7-0.4-1
						c-0.8-1.4-2.5-2.5-5-3.2c-2.6-0.7-5.4-0.7-8,0c-2.4,0.7-4.2,1.8-5,3.2c-0.2,0.3-0.3,0.7-0.4,1c1-1.3,2.7-2.3,5-2.9l0,0
						C112.1,162,113.5,161.8,115,161.8z"/>
				</g>
			</g>
			<g id="XMLID_5164_">
				<path id="XMLID_5494_" fill="#F3E2CC" d="M113.5,177l-0.5-0.3c-0.2-0.1-0.4,0-0.4,0l-3.3,0c-0.1,0-0.1,0.1-0.1,0.2l3,7.8
					c0,0.1,0.1,0.1,0.2,0.1c0.4-0.2,1.6-0.9,1.6-0.9c0.1-0.1,0.3-0.3,0.3-0.6v-4.9C114.2,177.8,113.9,177.2,113.5,177z"/>
				<path id="XMLID_5495_" fill="#414242" d="M112.3,185.2l-0.3-0.1c-0.2-0.1-0.3-0.2-0.4-0.4l-3-7.8c-0.1-0.2,0-0.4,0.1-0.6
					c0.1-0.2,0.3-0.3,0.5-0.3l3.3,0c0.1,0,0.5,0,0.7,0.1l0.5,0.3c0.5,0.3,0.9,1.1,0.9,1.7v4.9c0,0.4-0.2,0.7-0.5,1l0,0
					c-0.2,0.2-0.7,0.4-1.6,0.9L112.3,185.2z M109.8,177.1l2.6,6.9c0.4-0.2,1-0.6,1.2-0.7c0.1-0.1,0.1-0.1,0.1-0.2v-4.9
					c0-0.4-0.2-0.8-0.4-0.9l-0.5-0.3c0,0-0.1,0-0.1,0l-0.1,0L109.8,177.1z"/>
			</g>
			<g id="XMLID_5160_">
				<path id="XMLID_5490_" fill="#EFB639" d="M111.5,184.8l-2.2-1.4c-0.4-0.2-0.7-0.8-0.7-1.3v-4.9c0-0.5,0.3-0.7,0.7-0.5l2.2,1.4
					c0.4,0.2,0.7,0.8,0.7,1.3v4.9C112.2,184.8,111.9,185,111.5,184.8z"/>
				<path id="XMLID_5491_" fill="#414242" d="M111.8,185.4c-0.2,0-0.3,0-0.5-0.1l0,0l-2.2-1.4c-0.5-0.3-0.9-1-0.9-1.7v-4.9
					c0-0.4,0.2-0.8,0.5-1c0.3-0.2,0.6-0.1,0.9,0l2.2,1.4c0.5,0.3,0.9,1,0.9,1.7v4.9c0,0.4-0.2,0.8-0.5,1
					C112.1,185.3,111.9,185.4,111.8,185.4z M109.2,177.1C109.2,177.1,109.2,177.2,109.2,177.1l0,5c0,0.4,0.2,0.8,0.4,0.9l2.1,1.3
					c0,0,0,0,0-0.1v-4.9c0-0.4-0.2-0.8-0.4-0.9L109.2,177.1z"/>
			</g>
			<g id="XMLID_5159_">
				<path id="XMLID_5483_" fill="#DFDFDF" d="M133,171.6c0,0.7-0.5,1.4-1,1.8c-0.6,0.3-1,0.1-1-0.6s0.5-1.4,1-1.8
					C132.5,170.7,133,171,133,171.6z"/>
				<path id="XMLID_5487_" fill="#414242" d="M131.5,174.1c-0.2,0-0.4,0-0.5-0.1c-0.3-0.2-0.5-0.6-0.5-1.1c0-0.8,0.6-1.8,1.3-2.2
					c0.4-0.2,0.9-0.3,1.2-0.1c0.3,0.2,0.5,0.6,0.5,1.1c0,0.8-0.6,1.8-1.3,2.2C132,174,131.7,174.1,131.5,174.1z M132.4,171.4
					c0,0-0.1,0-0.2,0.1c-0.4,0.2-0.8,0.9-0.8,1.3c0,0.2,0,0.2,0.1,0.2c0,0,0.1,0,0.2-0.1c0.4-0.2,0.8-0.9,0.8-1.3
					C132.5,171.5,132.5,171.4,132.4,171.4C132.4,171.4,132.4,171.4,132.4,171.4z"/>
			</g>
			<g id="XMLID_5155_">
				<path id="XMLID_5486_" fill="#414242" d="M139.6,179.8c-1.5,0-3.1-0.3-4.5-1.1c-4.3-2.3-3.8-6.5-3.8-6.6l1.1,0.1
					c0,0.1-0.5,3.6,3.2,5.6c2.9,1.6,6.5,0.9,7.6,0.1c0.3-0.2,0.9-0.8,0.7-1.4c-0.1-0.3-0.8-1.4-4.7-1.8c-2.4-0.2-3.9-0.7-4.8-1.8
					c-0.8-1-0.6-1.9-0.6-2l0.8,0.1c0,0-0.1,0.6,0.5,1.2c0.5,0.6,1.6,1.4,4.2,1.6c4.1,0.3,5.3,1.5,5.5,2.4c0.3,0.8-0.1,1.7-1,2.5
					C143,179.3,141.4,179.8,139.6,179.8z"/>
			</g>
		</g>
		<g id="XMLID_5165_">
			<rect id="XMLID_5485_" x="120.7" y="161.4" fill="#414242" width="1" height="2.2"/>
		</g>
		<g id="XMLID_5166_">
			<rect id="XMLID_5484_" x="106.2" y="162.8" fill="#414242" width="1" height="2.2"/>
		</g>
	</g>
	<g id="XMLID_5190_">
		<g id="XMLID_5187_">
			<g id="XMLID_5195_">
				<path id="XMLID_5449_" fill="#EFB639" d="M171.8,96.7l0-7.1c0-0.1-0.1-0.2-0.1-0.2l-23.5-10.3c0,0,0,0,0,0l-4.5-2.6
					c-0.6-0.4-1.5-0.5-2.3-0.4c0,0-0.1,0-0.1,0l-5.7-2.5c0,0-0.1,0-0.1,0h-1.9c-0.1,0-0.2,0.1-0.2,0.2V81l0,0.1
					c0,0.4,0.3,0.6,0.8,0.9l25.1,14.5c1,0.6,2.3,1,3.6,1.1l5.8,0.6c1.6,0.2,3-0.5,3.2-1.3L171.8,96.7z"/>
				<path id="XMLID_5450_" fill="#414242" d="M169.1,98.7c-0.2,0-0.4,0-0.6,0l-5.8-0.6c-1.5-0.2-2.8-0.6-3.8-1.2l-25.1-14.5
					c-0.4-0.2-0.9-0.6-1-1.3l0-0.2v-7.2c0-0.4,0.3-0.7,0.7-0.7h1.9c0.1,0,0.2,0,0.3,0.1l5.7,2.5c1-0.1,1.9,0.1,2.5,0.5l4.5,2.6
					l23.4,10.3c0.3,0.1,0.4,0.4,0.4,0.7l0,7.1l-0.1,0.3C172,98,170.7,98.7,169.1,98.7z M133.8,80.9L133.8,80.9
					c0,0.2,0.1,0.4,0.5,0.6l25.1,14.5c0.9,0.5,2.1,0.9,3.4,1l5.8,0.6c1.4,0.2,2.5-0.4,2.6-0.9l0-0.2l0-6.9L148,79.5l-4.6-2.6
					c-0.5-0.3-1.2-0.4-2-0.4c-0.1,0-0.2,0-0.4-0.1l-5.7-2.5h-1.6V80.9z"/>
			</g>
			<g id="XMLID_5197_">
				<path id="XMLID_5445_" fill="#DB9C17" d="M171.7,89.3l-11.4-5v12.6c0.8,0.3,1.6,0.5,2.5,0.6l5.8,0.6c1.6,0.2,3-0.5,3.2-1.3
					l0-0.2l0-7.1C171.8,89.4,171.8,89.3,171.7,89.3z"/>
				<path id="XMLID_5446_" fill="#414242" d="M169.1,98.6c-0.2,0-0.4,0-0.6,0l-5.8-0.6c-0.9-0.1-1.8-0.3-2.7-0.6l-0.3-0.1V83.5
					l12.1,5.3c0.3,0.1,0.4,0.4,0.4,0.7l0,7.1l-0.1,0.3C172,97.9,170.7,98.6,169.1,98.6z M160.8,96.5c0.7,0.2,1.4,0.4,2.1,0.5
					l5.8,0.6c1.4,0.2,2.5-0.4,2.6-0.9l0-0.2l0-6.8L160.8,85V96.5z"/>
			</g>
			<g id="XMLID_5198_">
				<path id="XMLID_5441_" fill="#DB9C17" d="M135.8,73.6l-0.3-0.1c0,0-0.1,0-0.1,0h-1.9c-0.1,0-0.2,0.1-0.2,0.2V81l0,0.1
					c0,0.4,0.3,0.6,0.8,0.9l1.7,1V73.6z"/>
				<path id="XMLID_5442_" fill="#414242" d="M136.3,83.8l-2.5-1.4c-0.4-0.2-0.9-0.6-1-1.3l0-0.2v-7.2c0-0.4,0.3-0.7,0.7-0.7h1.9
					c0.1,0,0.2,0,0.3,0.1l0.6,0.3V83.8z M133.8,80.9L133.8,80.9c0,0.2,0.1,0.4,0.5,0.6l1,0.6V74h-1.5V80.9z"/>
			</g>
			<g id="XMLID_5189_">
				<path id="XMLID_5437_" fill="#F4E3CC" d="M168.8,83.6L143.7,69c-1.1-0.6-2.8-0.6-3.8,0l-5.7,3.3c-1.1,0.6-1.1,1.6,0,2.2
					l25.1,14.5c1,0.6,2.3,1,3.6,1.1l5.8,0.6c1.9,0.2,3.5-0.7,3.2-1.8l-1.1-3.3C170.4,84.9,169.8,84.1,168.8,83.6z"/>
				<path id="XMLID_6813_" fill="#EFB639" d="M172,89.7l-0.1-0.2c-0.3-0.8-0.9-1.5-1.9-2.1l-25.1-14.5c-1.1-0.6-2.8-0.6-3.8,0
					l-4.9,2.8l23.3,13.5c1,0.6,2.3,1,3.6,1.1l5.8,0.6C170.4,91,171.7,90.4,172,89.7z"/>
				<path id="XMLID_5438_" fill="#414242" d="M169.1,91.3c-0.2,0-0.4,0-0.6,0l-5.8-0.6c-1.5-0.2-2.8-0.6-3.8-1.2L133.9,75
					c-0.7-0.4-1-0.9-1-1.5s0.4-1.1,1-1.5l5.7-3.3c1.2-0.7,3.1-0.7,4.3,0L169,83.1c1.1,0.6,1.8,1.5,2.1,2.4l1.1,3.3
					c0.2,0.5,0.1,1-0.3,1.4C171.4,90.9,170.3,91.3,169.1,91.3z M141.7,69.1c-0.6,0-1.2,0.1-1.7,0.4l-5.7,3.3
					c-0.3,0.2-0.5,0.4-0.5,0.7c0,0.2,0.2,0.5,0.5,0.7l25.1,14.5c0.9,0.5,2.1,0.9,3.4,1l5.8,0.6c1.2,0.1,2.2-0.3,2.5-0.7
					c0.2-0.2,0.2-0.4,0.1-0.5l-1.1-3.3c-0.2-0.7-0.8-1.3-1.7-1.8l-25.1-14.5C143,69.2,142.4,69.1,141.7,69.1z"/>
			</g>
		</g>
		<g id="XMLID_5185_">
			<g id="XMLID_5188_">
				<path id="XMLID_5433_" fill="#A3A3A3" d="M151.2,89c0-1.2-0.7-2.6-1.7-3.2l-4.2-2.4c-0.4-0.2-0.8-0.2-1.1-0.1l-0.3,0.1
					l-58.8,33.9c0,0,0,0.1,0,0.1l6.5,6.8c0,0,0.1,0,0.1,0l58-33.4l0.9-0.5C151,90.1,151.2,89.7,151.2,89z"/>
				<path id="XMLID_6817_" fill="#DFDFDF" d="M147.7,89.6l0.9-0.5c0.4-0.2,2.1-1.1,2.1-1.8c0-0.9-1.9-1.5-2.5-2.2l-2.9-1.7
					c-0.4-0.2-0.8-0.2-1.1-0.1l-0.3,0.1l-58.8,33.9c0,0,0,0.1,0,0.1l5.1,5.3L147.7,89.6z"/>
				<path id="XMLID_5434_" fill="#414242" d="M91.6,124.8l-0.4-0.3l-6.7-6.9l0-0.3c0-0.2,0.1-0.3,0.3-0.4L144,82.8
					c0.5-0.2,1-0.2,1.5,0.1l4.2,2.4c1.1,0.6,1.9,2.2,1.9,3.6c0,0.9-0.3,1.5-0.9,1.8l-0.9,0.5L91.6,124.8z M85.9,117.5l5.9,6.1
					l58.6-33.8c0.1-0.1,0.4-0.2,0.4-0.9c0-1-0.6-2.3-1.4-2.8l-4.2-2.4c-0.2-0.1-0.4-0.2-0.6-0.1l-0.3,0.1L85.9,117.5z"/>
			</g>
			<g id="XMLID_5169_">
				<path id="XMLID_5238_" fill="#DFDFDF" d="M90.5,124.3l-4.2-2.4c-0.9-0.5-1.7-2-1.7-3.2l0,0c0-1.2,0.7-1.8,1.7-1.3l4.2,2.4
					c0.9,0.5,1.7,2,1.7,3.2l0,0C92.1,124.2,91.4,124.8,90.5,124.3z"/>
				<path id="XMLID_5430_" fill="#414242" d="M91.1,124.9c-0.3,0-0.6-0.1-0.9-0.3l-4.2-2.4c-1.1-0.6-1.9-2.2-1.9-3.6
					c0-0.8,0.3-1.5,0.8-1.8c0.5-0.3,1-0.2,1.6,0.1l4.2,2.4c1.1,0.6,1.9,2.2,1.9,3.6c0,0.8-0.3,1.5-0.8,1.8
					C91.6,124.9,91.4,124.9,91.1,124.9z M90.7,123.8c0.1,0.1,0.4,0.2,0.6,0.1c0.2-0.1,0.3-0.5,0.3-0.9c0-1-0.6-2.3-1.4-2.8l-4.2-2.4
					c-0.1-0.1-0.4-0.2-0.6-0.1c-0.2,0.1-0.3,0.5-0.3,0.9c0,1,0.6,2.3,1.4,2.8L90.7,123.8z"/>
			</g>
			<g id="XMLID_5186_">
				
					<rect id="XMLID_5429_" x="120.8" y="70.5" transform="matrix(0.5018 0.865 -0.865 0.5018 150.9004 -52.8446)" fill="#414242" width="1" height="68.2"/>
			</g>
		</g>
	</g>
</g>
<g>
</g>
<g>
</g>
<g>
</g>
<g>
</g>
<g>
</g>
<g>
</g>
<g>
</g>
<g>
</g>
<g>
</g>
<g>
</g>
<g>
</g>
<g>
</g>
<g>
</g>
<g>
</g>
<g>
</g>
</svg>
