<?xml version="1.0" encoding="utf-8"?>
<!-- Generator: Adobe Illustrator 18.0.0, SVG Export Plug-In . SVG Version: 6.00 Build 0)  -->
<!DOCTYPE svg PUBLIC "-//W3C//DTD SVG 1.1//EN" "http://www.w3.org/Graphics/SVG/1.1/DTD/svg11.dtd">
<svg version="1.1" id="Layer_1" xmlns="http://www.w3.org/2000/svg" xmlns:xlink="http://www.w3.org/1999/xlink" x="0px" y="0px"
	 viewBox="0 0 683.1 250" enable-background="new 0 0 683.1 250" xml:space="preserve">
<g>
	<path fill="#C0C3BA" d="M124.5,121.2l-9.2-27.5H77.4l-8.9,27.5H51.8L86.4,19.7h20.6l34.6,101.5H124.5z M96.8,34.8H96L81.3,79.6h30
		L96.8,34.8z"/>
</g>
<g>
	<path fill="#C0C3BA" d="M69,129.2l9.2,27.5h37.9l8.9-27.5h16.7l-34.6,101.5H86.4L51.8,129.2H69z M96.7,215.5h0.7l14.7-44.8h-30
		L96.7,215.5z"/>
</g>
<g>
	<path fill="#FFFFFF" d="M178.3,60.9h13v53.9h0.3c2.5-4.7,4.9-9.3,7.1-13.6l21.2-40.3h14.3l-27.8,48.5l28.5,65h-14l-23.3-54.8
		l-6.4,11v43.8h-13V60.9z"/>
	<path fill="#FFFFFF" d="M237.6,57.8h13v116.6h-13V57.8z"/>
	<path fill="#FFFFFF" d="M310.3,152.2c0,9.1,0.5,16.2,0.7,22.2h-11.3l-0.8-8.6h-0.3c-2.5,4-8.8,9.9-17.5,9.9
		c-14.3,0-19.9-11.1-19.9-31.3V92.9h13v49.7c0,12.8,2,22.2,11,22.2c7.6,0,11-7.1,11.6-10.8c0.5-2.2,0.7-4.7,0.7-7.4V92.9h13V152.2z"
		/>
	<path fill="#FFFFFF" d="M317.8,161c2.9,1.9,7.9,4.2,13.1,4.2c7.4,0,12-4.5,12-11.8c0-6.2-2.2-10.4-10.4-16
		c-10.6-6.9-16.3-13.8-16.3-23.3c0-13.1,9.8-22.6,22.4-22.6c6.4,0,11.3,2.2,14.7,4.2l-3.5,9.8c-3-2-6.6-3.5-10.8-3.5
		c-7.1,0-10.6,5.1-10.6,10.3c0,5.6,2,8.6,10.1,14.2c9.4,6.1,16.9,13.5,16.9,24.8c0,16.3-11.1,24.3-24.4,24.3
		c-6.1,0-12.6-1.9-16.2-4.7L317.8,161z"/>
	<path fill="#FFFFFF" d="M359.5,174.5c0.2-4.7,0.7-14,0.7-19.5V57.8h13v44.7h0.3c4.2-8.1,10.3-11,17.2-11
		c12.6,0,22.2,14.7,22.2,41.3c0,29.5-12.1,43-24.8,43c-8.6,0-13-5.1-16.2-12h-0.5l-0.8,10.6H359.5z M373.1,145.6
		c0,1.9,0,3.7,0.5,5.1c3,12.1,8.6,14.3,12.1,14.3c10.4,0,14.2-14.2,14.2-31.5c0-16.3-3.9-30.8-14.3-30.8c-6.1,0-11.1,7.6-12.1,14.5
		c-0.3,1.9-0.3,3.9-0.3,5.7V145.6z"/>
	<path fill="#FFFFFF" d="M428.2,134.9c0.2,24.9,9.9,30.3,19.4,30.3c5.6,0,10.3-1.3,13.5-3.2l2,9.6c-4.5,2.5-11.5,3.9-17.9,3.9
		c-19.5,0-29.7-16-29.7-40.9c0-26.5,11.1-43,27.5-43c16.7,0,23.3,17.5,23.3,36.1c0,3,0,5.2-0.2,7.2H428.2z M453.8,125.3
		c0.3-16.3-5.9-23.6-12.1-23.6c-8.4,0-12.8,12.5-13.3,23.6H453.8z"/>
	<path fill="#FFFFFF" d="M520.9,57.8v97.1c0,5.6,0.5,14.8,0.7,19.5h-11.1l-0.8-10.3h-0.5c-2.7,5.9-8.4,11.6-17,11.6
		c-13.8,0-23.8-15-23.8-41.8c0-29,12-42.5,24.6-42.5c5.9,0,11.6,2.9,14.8,9.8h0.3V57.8H520.9z M508.1,123.9c0-1.7,0-3.5-0.2-5.4
		c-0.8-8.4-5.9-15.8-12.1-15.8c-10.8,0-14.5,15-14.5,31.3c0,17.2,4.4,31,13.8,31c4,0,9.6-2.2,12.5-14c0.3-1.5,0.5-3.4,0.5-5.4V123.9
		z"/>
	<path fill="#FFFFFF" d="M530.5,114c0-6.9-0.5-15-0.7-21.1h11.6l0.7,12.8h0.3c2.7-7.8,9.6-14.2,17.2-14.2c1,0,1.9,0.2,2.7,0.2V105
		c-0.8-0.2-1.7-0.2-2.7-0.2c-8.3,0-14.3,7.6-15.7,17c-0.3,2.2-0.5,4.7-0.5,7.4v45.2h-13V114z"/>
	<path fill="#FFFFFF" d="M578,71.8c0.2,5.1-3,8.4-7.9,8.4c-4.2,0-7.4-3.4-7.4-8.4s3.4-8.4,7.6-8.4C575,63.4,578,66.8,578,71.8z
		 M564,174.5V92.9h13v81.6H564z"/>
	<path fill="#FFFFFF" d="M572.8,197.9c3.7-1,8.3-2.4,11-6.4c2.9-4.4,3.9-10.4,3.9-26V92.9h13v76.3c0,17.2-2.5,25.1-8.3,31.2
		c-4.9,5.1-12.8,7.6-17.9,7.8L572.8,197.9z M601.8,71.8c0,5.1-3,8.4-7.9,8.4c-4.2,0-7.6-3.4-7.4-8.4c-0.2-5.1,3.2-8.4,7.8-8.4
		S601.8,66.8,601.8,71.8z"/>
	<path fill="#FFFFFF" d="M612.6,174.5v-71.6h-10.3v-9.9h10.3V88c0-8.8,1.3-17.9,7.2-24.6c4.7-5.2,11.3-6.9,16.3-6.9
		c4.4,0,7.8,0.8,10.1,2l-2.2,10.1c-1.5-0.7-3.7-1.3-7.1-1.3c-9.3,0-11.5,9.9-11.5,20.6v5.1h14.8v9.9h-14.8v71.6H612.6z"/>
</g>
<g>
	<line x1="36" y1="126" x2="158" y2="126"/>
	<rect x="36" y="125" width="122" height="1"/>
</g>
<g>
</g>
<g>
</g>
<g>
</g>
<g>
</g>
<g>
</g>
<g>
</g>
<g>
</g>
<g>
</g>
<g>
</g>
<g>
</g>
<g>
</g>
<g>
</g>
<g>
</g>
<g>
</g>
<g>
</g>
</svg>
